<?xml version="1.0" encoding="utf-8"?>
<!-- Generator: Adobe Illustrator 25.3.0, SVG Export Plug-In . SVG Version: 6.00 Build 0)  -->
<svg version="1.1" id="Calque_1" xmlns:svgjs="http://svgjs.dev/svgjs"
	 xmlns="http://www.w3.org/2000/svg" xmlns:xlink="http://www.w3.org/1999/xlink" x="0px" y="0px" viewBox="0 0 800 800"
	 style="enable-background:new 0 0 800 800;" xml:space="preserve">
<style type="text/css">
	.st0{opacity:3.000000e-02;}
	
		.st1{opacity:0.65;fill:none;stroke:url(#SVGID_1_);stroke-width:2;stroke-linecap:round;stroke-dasharray:8,2;enable-background:new    ;}
	
		.st2{opacity:0.18;fill:none;stroke:url(#SVGID_2_);stroke-width:2;stroke-linecap:round;stroke-dasharray:3,0;enable-background:new    ;}
	
		.st3{opacity:0.31;fill:none;stroke:url(#SVGID_3_);stroke-width:2;stroke-linecap:round;stroke-dasharray:8,5;enable-background:new    ;}
	
		.st4{opacity:0.38;fill:none;stroke:url(#SVGID_4_);stroke-width:2;stroke-linecap:round;stroke-dasharray:1,0;enable-background:new    ;}
	
		.st5{opacity:0.53;fill:none;stroke:url(#SVGID_5_);stroke-width:2;stroke-linecap:round;stroke-dasharray:4,10;enable-background:new    ;}
	
		.st6{opacity:0.48;fill:none;stroke:url(#SVGID_6_);stroke-width:2;stroke-linecap:round;stroke-dasharray:3,9;enable-background:new    ;}
	
		.st7{opacity:0.85;fill:none;stroke:url(#SVGID_7_);stroke-width:2;stroke-linecap:round;stroke-dasharray:6,7;enable-background:new    ;}
	
		.st8{opacity:0.1;fill:none;stroke:url(#SVGID_8_);stroke-width:2;stroke-linecap:round;stroke-dasharray:3,8;enable-background:new    ;}
	
		.st9{opacity:0.8;fill:none;stroke:url(#SVGID_9_);stroke-width:2;stroke-linecap:round;stroke-dasharray:10,1;enable-background:new    ;}
	
		.st10{opacity:0.3;fill:none;stroke:url(#SVGID_10_);stroke-width:2;stroke-linecap:round;stroke-dasharray:6,7;enable-background:new    ;}
	
		.st11{opacity:0.34;fill:none;stroke:url(#SVGID_11_);stroke-width:2;stroke-linecap:round;stroke-miterlimit:4;stroke-dasharray:6,6;enable-background:new    ;}
	
		.st12{opacity:0.68;fill:none;stroke:url(#SVGID_12_);stroke-width:2;stroke-linecap:round;stroke-dasharray:2,3;enable-background:new    ;}
	
		.st13{opacity:9.000000e-02;fill:none;stroke:url(#SVGID_13_);stroke-width:2;stroke-linecap:round;stroke-dasharray:8,5;enable-background:new    ;}
	
		.st14{opacity:0.93;fill:none;stroke:url(#SVGID_14_);stroke-width:2;stroke-linecap:round;stroke-dasharray:9,4;enable-background:new    ;}
	
		.st15{opacity:0.91;fill:none;stroke:url(#SVGID_15_);stroke-width:2;stroke-linecap:round;stroke-dasharray:11,4;enable-background:new    ;}
	
		.st16{opacity:0.24;fill:none;stroke:url(#SVGID_16_);stroke-width:2;stroke-linecap:round;stroke-dasharray:10,3;enable-background:new    ;}
	
		.st17{opacity:0.67;fill:none;stroke:url(#SVGID_17_);stroke-width:2;stroke-linecap:round;stroke-dasharray:10,5;enable-background:new    ;}
	
		.st18{opacity:0.5;fill:none;stroke:url(#SVGID_18_);stroke-width:2;stroke-linecap:round;stroke-dasharray:8,7;enable-background:new    ;}
	
		.st19{opacity:0.79;fill:none;stroke:url(#SVGID_19_);stroke-width:2;stroke-linecap:round;stroke-dasharray:5,9;enable-background:new    ;}
	
		.st20{opacity:0.99;fill:none;stroke:url(#SVGID_20_);stroke-width:2;stroke-linecap:round;stroke-dasharray:4,9;enable-background:new    ;}
	
		.st21{opacity:0.17;fill:none;stroke:url(#SVGID_21_);stroke-width:2;stroke-linecap:round;stroke-dasharray:6,4;enable-background:new    ;}
	
		.st22{opacity:0.9;fill:none;stroke:url(#SVGID_22_);stroke-width:2;stroke-linecap:round;stroke-dasharray:9,3;enable-background:new    ;}
	
		.st23{opacity:0.43;fill:none;stroke:url(#SVGID_23_);stroke-width:2;stroke-linecap:round;stroke-dasharray:2,8;enable-background:new    ;}
	
		.st24{opacity:0.78;fill:none;stroke:url(#SVGID_24_);stroke-width:2;stroke-linecap:round;stroke-dasharray:8,11;enable-background:new    ;}
	
		.st25{opacity:0.26;fill:none;stroke:url(#SVGID_25_);stroke-width:2;stroke-linecap:round;stroke-dasharray:5,6;enable-background:new    ;}
	
		.st26{opacity:0.12;fill:none;stroke:url(#SVGID_26_);stroke-width:2;stroke-linecap:round;stroke-dasharray:3,0;enable-background:new    ;}
	
		.st27{opacity:0.87;fill:none;stroke:url(#SVGID_27_);stroke-width:2;stroke-linecap:round;stroke-dasharray:5,10;enable-background:new    ;}
</style>
<g class="st0">
	
		<linearGradient id="SVGID_1_" gradientUnits="userSpaceOnUse" x1="102.3398" y1="820.856" x2="102.3398" y2="819.856" gradientTransform="matrix(634.93 0 0 -616.7092 -64561.1875 506328.9688)">
		<stop  offset="0" style="stop-color:#000000"/>
		<stop  offset="1" style="stop-color:#000000"/>
	</linearGradient>
	<path class="st1" d="M407.5,105.1c10.3-2.2,21-3.8,32-4.8c11-0.8,22.4-0.9,34-0.3c11.6,0.9,23.5,2.5,35.5,4.9
		c11.9,2.7,23.8,6.1,35.4,10.1c11.3,4.4,22.1,9.4,32.1,15c9.3,5.8,17.5,12.2,24.2,19.1c5.7,7,9.7,14.5,11.9,22.3
		c1.1,7.9,0.7,16.1-1.2,24.6c-2.2,8.5-5.1,17.2-8.1,26.1c-1.9,8.9-2.7,17.9-1.8,27c3.5,9.1,9.6,18.4,18.4,27.7
		c11.7,9.3,25.7,18.7,41.3,28.3c16.5,9.5,32.9,19.1,47.7,28.9c12.5,9.7,21.3,19.6,25.6,29.6c-0.1,10-5,20.1-14.4,30.3
		C708,404,693.6,414.5,678.5,425c-13.4,10.5-24.2,20.9-31.2,31.2c-2.5,10.2-0.8,20.3,4.5,30.2c8.7,9.8,19.1,19.5,29.8,28.8
		c10.5,9.3,19,18.2,24.6,26.8c2.7,8.5,1.5,16.5-3.4,24.1c-8.1,7.4-19.2,14.3-32.7,20.6c-15,6.1-30.8,11.6-46.8,16.5
		c-15.6,4.7-30.3,8.7-43.7,12.1c-12,3.3-22.5,6-31.6,8.1c-10.8,3-26.4,7.3-32.8,9.1c-5.9,2.4-20,8.8-28.7,13.1
		c-6.2,3.7-13.1,7.8-20.8,12.3c-7.8,5.1-16.3,10.6-25.5,16.1c-9.2,6-19.1,12-29.5,17.7c-10.4,5.8-21.1,10.9-32,15.2
		c-10.9,4-21.9,6.9-33.1,8.6c-11.1,1.1-22.4,1-33.6-0.3c-11.1-2.1-22.2-5.3-33.2-9.7c-10.7-5.1-21.2-11.1-31.3-18.1
		c-9.7-7.4-18.9-15.6-27.5-24.4c-8-9-15.3-18.5-21.8-28.2c-6-9.8-11.1-19.8-15.5-29.9c-4.1-10-7.6-20.1-10.6-30.1
		c-3.1-9.9-6.1-19.7-9-29.5c-3.5-9.6-7.2-19.2-11.3-28.7c-4.8-9.4-9.9-18.7-15.2-28.1c-5.8-9.2-11.6-18.5-17.2-27.8
		c-5.4-9.2-10.1-18.6-13.9-28c-3.1-9.4-5.1-18.9-5.7-28.4c0.1-9.6,1.4-19.2,3.7-29c2.6-9.8,5.7-19.4,9-28.9
		c2.9-9.5,5.6-18.8,8.1-27.8c1.7-9.1,3.1-17.9,4.3-26.5c0.6-8.5,1.4-16.8,2.4-24.8c1.1-7.9,2.8-15.5,5.5-22.7
		c3.2-7.2,7.4-14,12.7-20.4c6-6.4,13.1-12.4,21-17.9c8.4-5.6,17.5-10.8,27.1-15.6c9.7-4.8,19.5-9.3,29.4-13.5
		c9.7-4.2,19.2-8.2,28.6-11.9c9-3.9,17.8-7.5,26.5-10.9c8.3-3.7,16.5-7.2,24.7-10.5c7.9-3.6,15.9-7.1,24.1-10.5
		c8-3.6,16.2-7.1,24.8-10.4c8.5-3.5,17.4-6.8,26.7-9.7C387.4,110,397.2,107.3,407.5,105.1"/>
	
		<linearGradient id="SVGID_2_" gradientUnits="userSpaceOnUse" x1="102.3428" y1="820.8436" x2="102.3428" y2="819.8436" gradientTransform="matrix(612.7018 40.0592 38.8312 -593.921 -94140.6953 483528.3438)">
		<stop  offset="0" style="stop-color:#000000"/>
		<stop  offset="1" style="stop-color:#000000"/>
	</linearGradient>
	<path class="st2" d="M434.4,117.2c10.3-1.5,20.8-2.5,31.5-2.8c10.7-0.2,21.5,0.4,32.5,1.6c10.9,1.5,21.8,3.7,32.6,6.5
		c10.6,3.2,21,7,30.9,11.5c9.5,4.7,18.2,10,26,15.9c7.1,6,12.9,12.5,17.3,19.3c3.5,7,5.5,14.2,5.9,21.8c-0.3,7.6-1.8,15.4-4.3,23.5
		c-2.4,8.1-5,16.4-7.3,24.9c-0.9,8.6-0.4,17.5,1.8,26.6c4.8,9.2,11.9,18.8,21.4,28.6c11.9,9.9,25.5,20.1,40.3,30.4
		c15.2,10.3,29.7,20.7,42.5,31.1c10.3,10.2,17.1,20.3,19.6,30.2c-1.5,9.6-7.4,19.1-17.4,28.4c-12.4,9.2-26.8,18.3-41.7,27.5
		c-13.4,9.3-24.5,18.6-32.2,27.9c-3.6,9.6-3.4,19.3,0.3,28.9c6.9,9.8,15.6,19.5,25,28.9c9.6,9.4,17.6,18.3,23.3,26.7
		c3.4,8.1,3.3,15.7-0.1,22.5c-6.4,6.5-15.7,12.2-27.5,17.3c-13.5,4.8-28.3,8.9-43.7,12.4c-15.5,3.3-30.5,6.1-44.6,8.4
		c-13.1,2.3-25,4.1-35.6,5.5c-9.3,1.5-17.5,2.8-24.7,3.8c-9.1,1.8-24.6,5.8-32.2,8.3c-5,2.3-10.6,4.8-16.7,7.5
		c-6.2,3.4-13,7.1-20.5,11.1c-7.6,4.6-15.9,9.3-24.8,14.1c-9,5.2-18.6,10.3-28.8,15.1c-10.2,4.9-20.6,9.1-31.2,12.5
		c-10.5,3.1-21.2,5.3-31.9,6.4c-10.6,0.5-21.2-0.1-31.7-1.9c-10.3-2.4-20.4-6-30.2-10.6c-9.5-5.2-18.7-11.3-27.3-18.3
		c-8.2-7.4-15.8-15.5-22.8-24.2c-6.4-8.9-12.1-18.2-17-27.8c-4.5-9.7-8.3-19.5-11.4-29.5c-3-9.9-5.5-19.9-7.6-29.8
		c-2.4-9.9-4.8-19.7-7.3-29.5c-3.1-9.7-6.5-19.4-10.2-29.1c-4.4-9.6-9.2-19.2-14.1-28.8c-5.3-9.5-10.6-19.1-15.5-28.6
		c-4.8-9.5-8.8-18.9-11.8-28.3c-2.4-9.4-3.5-18.7-3.4-28c0.9-9.3,2.9-18.5,5.9-27.8c3.3-9.2,7.1-18.3,11.1-27.1
		c3.6-8.9,7-17.5,10.1-26c2.3-8.5,4.4-16.8,6.1-24.9c1.1-8.1,2.3-15.9,3.6-23.3c1.3-7.4,3.1-14.5,5.7-21.2c3-6.6,7-12.8,12-18.6
		c5.7-5.7,12.4-11,19.9-15.8c8.2-4.8,17-9.2,26.4-13.2c9.7-4,19.6-7.8,29.7-11.1c10-3.5,20-6.7,29.9-9.8c9.6-3.2,19.1-6.2,28.4-9
		c9-3.1,17.9-6,26.7-8.8c8.5-3.1,17.1-6,25.8-8.8c8.5-3.1,17.2-6,26.1-8.6c8.8-2.9,17.9-5.5,27.4-7.8
		C414.3,120.8,424.1,118.8,434.4,117.2"/>
	
		<linearGradient id="SVGID_3_" gradientUnits="userSpaceOnUse" x1="102.3422" y1="820.8306" x2="102.3422" y2="819.8306" gradientTransform="matrix(587.8031 77.1925 74.6925 -568.7664 -121010.0156 459086.0938)">
		<stop  offset="0" style="stop-color:#000000"/>
		<stop  offset="1" style="stop-color:#000000"/>
	</linearGradient>
	<path class="st3" d="M457.9,131.3c10.1-0.9,20.3-1.2,30.5-0.9c10.2,0.4,20.4,1.5,30.5,3.3c10,2,19.8,4.6,29.3,7.8
		c9.2,3.5,18,7.6,26.1,12.2c7.6,4.9,14.4,10.2,20.1,16c5,5.9,8.8,12.2,11.3,18.8c1.7,6.7,2.2,13.6,1.4,20.7
		c-1.2,7.2-3.2,14.6-5.8,22.2c-2.1,7.7-4.1,15.7-5.4,24c0.2,8.5,1.9,17.3,5.4,26.6c5.8,9.5,13.7,19.5,23.6,29.8
		c11.8,10.5,24.8,21.3,38.4,32.3c13.6,11,26.3,21.9,36.9,32.7c8.2,10.4,13,20.5,13.8,30.1c-2.8,9.2-9.6,17.9-20,26.2
		c-12.5,8.1-26.7,16-41.4,23.9c-13.4,8.1-24.6,16.3-32.8,24.7c-4.5,8.9-5.6,18-3.5,27.2c5.2,9.6,12.3,19.2,20.2,28.6
		c8.5,9.4,15.9,18.3,21.6,26.6c3.8,8,4.8,15.1,2.7,21.4c-4.7,5.8-12.3,10.8-22.3,14.9c-11.9,3.7-25.2,6.8-39.5,9.1
		c-14.8,2.2-29.5,3.8-43.8,5c-13.7,1.2-26.5,2.1-38.2,2.7c-10.7,0.8-20.3,1.4-29,1.9c-7.8,0.8-14.8,1.7-21.5,2.4
		c-6.1,1.3-12,2.6-17.9,4.1c-5.7,2.1-11.8,4.3-18.2,6.8c-6.4,3.1-13.4,6.4-20.8,9.8c-7.6,4-15.7,8.1-24.5,12.2
		c-8.8,4.5-18.2,8.7-28,12.7c-9.9,4-19.9,7.4-30.1,10c-10.1,2.4-20.2,3.8-30.3,4.3c-9.9,0-19.7-1.1-29.3-3.2
		c-9.3-2.7-18.3-6.4-26.9-11.1c-8.3-5.2-16-11.3-23.2-18.1c-6.7-7.2-12.8-15.1-18.2-23.5c-4.9-8.6-9.2-17.6-12.6-26.9
		c-3.2-9.4-5.8-18.9-7.8-28.6c-2-9.7-3.7-19.4-5.2-29.2c-1.9-9.7-3.8-19.5-5.9-29.3c-2.8-9.8-5.8-19.5-9.2-29.3
		c-4.1-9.8-8.4-19.6-12.9-29.3c-4.8-9.7-9.5-19.5-13.7-29.1c-4-9.6-7.3-19.1-9.6-28.5c-1.6-9.3-2-18.4-1.2-27.4
		c1.6-8.9,4.3-17.7,8-26.4c4-8.7,8.4-17.1,13-25.3c4.2-8.2,8.2-16.3,12-24.1c3-7.9,5.6-15.7,7.9-23.2c1.7-7.6,3.2-14.9,4.9-21.9
		c1.5-7,3.4-13.6,5.9-19.8c2.9-6.1,6.6-11.8,11.2-17c5.3-5.1,11.5-9.8,18.6-14c7.7-4.1,16.2-7.9,25.2-11.2c9.4-3.3,19.2-6.3,29.2-9
		c10.1-2.8,20.3-5.3,30.4-7.6c10-2.5,19.9-4.8,29.7-7c9.6-2.4,19-4.7,28.4-6.9c9.2-2.4,18.3-4.8,27.4-6.9c9-2.4,18.1-4.7,27.3-6.7
		c9.2-2.3,18.5-4.2,28.1-5.9C437.9,133.5,447.8,132.2,457.9,131.3"/>
	
		<linearGradient id="SVGID_4_" gradientUnits="userSpaceOnUse" x1="102.3384" y1="820.8167" x2="102.3384" y2="819.8167" gradientTransform="matrix(560.5433 111.2165 107.4462 -541.5407 -145088.0312 433263.375)">
		<stop  offset="0" style="stop-color:#000000"/>
		<stop  offset="1" style="stop-color:#000000"/>
	</linearGradient>
	<path class="st4" d="M477.2,146.7c9.9-0.2,19.6,0,29.3,0.9c9.6,1,19,2.5,28,4.6c9,2.3,17.5,5.2,25.6,8.7c7.8,3.6,15,7.8,21.3,12.4
		c5.9,4.8,10.9,10,14.8,15.6c3.3,5.7,5.5,11.6,6.5,17.8c0.5,6.3,0,12.8-1.5,19.4c-1.5,6.8-3.6,13.8-5.8,21.1
		c-1.5,7.5-2.6,15.3-2.8,23.5c1.4,8.5,4.2,17.5,8.8,27c6.5,9.9,14.9,20.3,24.8,31.1c11.3,11.1,23.4,22.4,35.7,33.9
		c11.9,11.4,22.5,22.6,31.2,33.5c6.2,10.4,9.1,20.3,8.4,29.5c-3.9,8.5-11.5,16.5-22.1,23.8c-12.5,7-26.4,13.7-40.8,20.4
		c-13.2,6.9-24.5,14-33.1,21.4c-5.4,8.1-7.6,16.5-6.9,25.2c3.6,9.3,9.1,18.6,15.6,27.9c7.3,9.3,14,18.2,19.4,26.4
		c4,7.9,5.7,14.8,4.8,20.8c-3.2,5.4-9,9.9-17.2,13.4c-10,3-21.7,5.2-34.6,6.7c-13.6,1.2-27.6,1.9-41.5,2.1
		c-13.7,0.3-26.8,0.2-39.1,0c-11.6,0-22.3-0.1-32.2-0.2c-9.1,0.3-17.4,0.6-25.3,0.9c-7.3,0.9-14.3,1.9-21.1,3
		c-6.6,1.7-13.3,3.6-20.2,5.6c-6.9,2.6-14.1,5.4-21.8,8.3c-7.7,3.4-15.9,6.9-24.5,10.2c-8.7,3.7-17.8,7.2-27.3,10.4
		c-9.5,3.2-19.1,5.8-28.8,7.8c-9.5,1.7-19,2.5-28.3,2.5c-9.1-0.5-18-1.9-26.6-4.2c-8.3-2.9-16.1-6.6-23.5-11.3
		c-7-5.1-13.4-11-19.2-17.6c-5.4-6.9-10.1-14.4-14-22.4c-3.6-8.2-6.6-16.8-8.9-25.6c-2.1-9-3.7-18.1-4.9-27.4
		c-1.3-9.4-2.4-18.8-3.4-28.3c-1.5-9.6-3-19.2-4.8-28.9c-2.5-9.8-5.2-19.6-8.3-29.4c-3.7-9.9-7.6-19.8-11.6-29.7
		c-4.2-9.9-8.3-19.7-11.8-29.4c-3.3-9.6-5.8-19.1-7.3-28.3c-0.8-9.1-0.5-18,1-26.6c2.3-8.5,5.6-16.8,9.9-24.9
		c4.5-8,9.5-15.8,14.7-23.3c4.8-7.6,9.4-15,13.7-22.1c3.5-7.3,6.7-14.5,9.5-21.5c2.1-7.1,4.1-13.9,6.1-20.4
		c1.7-6.6,3.8-12.8,6.2-18.5c2.7-5.7,6.2-11,10.4-15.7c4.8-4.7,10.5-8.8,17-12.5c7.1-3.6,15-6.7,23.5-9.4c9-2.7,18.4-5,28.1-7.1
		c10-2.1,20.1-4,30.2-5.6c10.2-1.8,20.3-3.5,30.4-4.9c9.9-1.7,19.8-3.3,29.5-4.8c9.6-1.8,19.1-3.4,28.6-4.9
		c9.4-1.8,18.8-3.3,28.3-4.7c9.4-1.6,18.9-2.9,28.5-3.9C457.6,147.7,467.3,146.9,477.2,146.7"/>
	
		<linearGradient id="SVGID_5_" gradientUnits="userSpaceOnUse" x1="102.3323" y1="820.8021" x2="102.3323" y2="819.8021" gradientTransform="matrix(531.2255 141.9735 136.976 -512.5262 -166310.2031 406307.8125)">
		<stop  offset="0" style="stop-color:#000000"/>
		<stop  offset="1" style="stop-color:#000000"/>
	</linearGradient>
	<path class="st5" d="M491.8,162.6c9.5,0.3,18.7,1.1,27.7,2.4c8.9,1.4,17.4,3.3,25.4,5.7c7.9,2.5,15.3,5.6,22,9.1
		c6.5,3.7,12.2,7.7,17,12.2c6.2,7.1,13,22.8,13.6,31.3c-0.2,5.8-1.2,11.9-2.8,18.2c-1.4,6.5-3.1,13.2-4.6,20.3
		c-0.7,7.4-0.7,15.2,0.2,23.4c2.5,8.7,6.3,18,11.6,27.8c7,10.3,15.4,21.1,25,32.4c10.5,11.5,21.5,23.2,32.2,35
		c10.1,11.6,18.7,22.9,25.3,33.7c4.3,10.2,5.5,19.6,3.4,28.2c-4.9,7.8-13,14.9-23.8,21.2c-12.3,5.9-26,11.6-40,17.1
		c-12.9,5.8-24.2,11.9-33.1,18.3c-6,7.2-9.3,14.9-9.8,23c2.1,8.8,6.1,17.8,11.2,26.7c6.1,9.1,11.9,17.9,16.9,26
		c5.1,11.2,2.2,27.9-6.3,33.1c-8.2,2.6-18.1,4.3-29.3,5.1c-12.2,0.6-25,0.5-38.1,0c-13.2-0.5-26.1-1.4-38.6-2.4
		c-12-0.8-23.4-1.6-34-2.4c-10.1-0.4-19.5-0.7-28.3-0.9c-8.4,0.3-16.4,0.8-24.1,1.4c-7.5,1.2-15,2.6-22.5,4.1
		c-7.5,2.1-15.1,4.3-23,6.6c-7.9,2.8-16.2,5.5-24.7,8.2c-8.6,3-17.5,5.7-26.7,8.1c-9.2,2.5-18.3,4.4-27.4,5.7
		c-9,1.1-17.7,1.4-26.2,1c-8.3-0.8-16.3-2.5-23.8-4.9c-7.2-2.9-14-6.6-20.1-11.1c-5.8-4.9-11-10.5-15.5-16.7
		c-4.2-6.5-7.6-13.6-10.4-21c-2.5-7.7-4.5-15.7-5.8-24.1c-1.3-8.5-2.2-17.2-2.8-26c-0.8-9-1.5-18.1-2.1-27.4
		c-1.2-9.4-2.5-18.9-4.1-28.5c-2.2-9.7-4.7-19.5-7.5-29.4c-3.3-10-6.8-19.9-10.2-29.9c-3.6-9.9-7-19.8-9.8-29.5
		c-2.5-9.6-4.3-18.9-5-28c-0.1-8.9,1-17.4,3.1-25.6c2.9-8,6.8-15.8,11.5-23.3c5.1-7.4,10.5-14.5,16.1-21.3
		c5.3-6.9,10.3-13.6,15.1-20.1c4.1-6.7,7.7-13.3,11-19.7c2.6-6.6,5-12.9,7.3-19c2-6.1,4.1-11.9,6.6-17.3c2.6-5.4,5.9-10.3,9.7-14.7
		c4.4-4.3,9.5-8.1,15.4-11.4c6.5-3.2,13.7-5.9,21.6-8.1c8.4-2.2,17.2-4,26.5-5.5c9.6-1.5,19.4-2.8,29.3-3.8
		c10.1-1.2,20.2-2.2,30.2-3c10.1-1.1,20.1-2,30-2.8c9.9-1.1,19.6-2,29.3-2.8c9.7-1.1,19.3-1.9,28.8-2.6c9.5-0.9,19.1-1.5,28.6-1.9
		C472.8,162.4,482.3,162.3,491.8,162.6"/>
	
		<linearGradient id="SVGID_6_" gradientUnits="userSpaceOnUse" x1="102.3298" y1="820.7866" x2="102.3298" y2="819.7866" gradientTransform="matrix(500.278 169.3708 163.1969 -482.042 -184650.875 378490.6875)">
		<stop  offset="0" style="stop-color:#000000"/>
		<stop  offset="1" style="stop-color:#000000"/>
	</linearGradient>
	<path class="st6" d="M501.8,178.4c9,0.9,17.7,2.1,25.9,3.7c8.1,1.7,15.8,3.9,22.8,6.4c6.9,2.7,13.2,5.7,18.7,9.2
		c7.5,5.5,18,18.3,20.7,25.4c1.4,7.5,0.3,23.8-1.6,32.6c-1,6.3-1.9,12.9-2.6,19.9c0.3,7.4,1.3,15.3,3.2,23.8
		c3.3,9,7.9,18.6,13.7,28.8c7.1,10.7,15.3,21.9,24.3,33.4c9.5,11.8,19.1,23.7,28.2,35.5c8.2,11.5,14.9,22.6,19.6,33.1
		c2.5,9.7,2.2,18.6-1.1,26.4c-5.7,7-14.2,13.2-25.1,18.5c-12.1,4.9-25.4,9.5-38.9,13.9c-12.6,4.8-23.7,9.8-32.8,15.2
		c-6.6,6.3-10.6,13.2-12.3,20.5c0.8,8.2,3.3,16.6,7,25.2c4.8,8.9,9.7,17.4,14.1,25.3c5,11.1,4.6,27.7-1.6,32.8
		c-6.4,2.4-14.6,3.9-24,4.4c-10.6,0.2-21.9-0.3-33.8-1.4c-12.3-1.1-24.6-2.6-36.6-4.2c-12-1.5-23.5-3-34.4-4.4
		c-10.6-1.1-20.7-2.1-30.3-2.9c-9.2-0.4-18.1-0.5-26.6-0.5c-8.3,0.6-16.5,1.3-24.6,2.3c-8,1.4-16.1,3-24.3,4.7
		c-8.2,2.1-16.6,4.1-25.1,6.1c-8.6,2.2-17.3,4.2-26.1,6c-8.8,1.8-17.5,3-25.9,3.8c-8.4,0.6-16.4,0.5-24.1-0.3
		c-7.5-1.1-14.6-2.9-21.1-5.4c-6.3-2.9-12-6.5-17-10.7c-4.8-4.6-8.9-9.8-12.3-15.6c-3.2-6-5.7-12.6-7.6-19.5
		c-1.7-7.2-2.9-14.7-3.6-22.4c-0.7-8-1.2-16.2-1.3-24.6c-0.5-8.6-0.9-17.4-1.4-26.4c-1-9.2-2.2-18.5-3.6-27.9
		c-2-9.6-4.2-19.4-6.7-29.2c-2.9-9.9-5.9-19.9-8.8-29.8c-3-9.9-5.6-19.7-7.8-29.3c-1.8-9.4-2.7-18.5-2.8-27.3
		c0.6-8.5,2.3-16.7,5.1-24.4c3.4-7.5,7.8-14.7,13-21.5c5.5-6.8,11.3-13.1,17.3-19.2c5.7-6.2,11.1-12.2,16.3-18.1
		c4.5-6.1,8.7-12,12.4-17.8c3.1-6,5.9-11.9,8.5-17.5c3.4-8.4,11.2-23.5,16.3-30c3.9-4,8.6-7.5,13.9-10.5c5.8-2.9,12.4-5.3,19.5-7.2
		c7.7-1.8,15.8-3.3,24.4-4.3c9-1.1,18.3-1.8,27.8-2.4c9.7-0.6,19.5-1,29.4-1.3c9.9-0.4,19.9-0.8,29.7-0.9c9.9-0.4,19.7-0.7,29.4-0.8
		c9.7-0.4,19.3-0.6,28.8-0.6c9.5-0.2,19-0.2,28.3,0.1C483.5,177,492.7,177.5,501.8,178.4"/>
	
		<linearGradient id="SVGID_7_" gradientUnits="userSpaceOnUse" x1="102.3297" y1="820.7703" x2="102.3297" y2="819.7703" gradientTransform="matrix(468.192 193.3998 186.0394 -450.3734 -200103.0625 350047.1562)">
		<stop  offset="0" style="stop-color:#000000"/>
		<stop  offset="1" style="stop-color:#000000"/>
	</linearGradient>
	<path class="st7" d="M507.4,193.3c8.5,1.3,16.5,2.9,24,4.8c7.4,2,14.2,4.3,20.4,6.9c8.7,4.2,22.1,14.3,26.6,20.1
		c3.4,6.2,6.1,19.8,5.7,27.3c-0.3,5.3-1,10.8-1.8,16.7c-0.3,6.2-0.5,12.9-0.2,20c1.2,7.6,3.1,15.8,5.9,24.5c4,9.3,9,19.3,15,29.8
		c7,11,14.7,22.4,22.8,34.1c8.3,11.8,16.4,23.7,23.8,35.3c6.4,11.2,11.2,21.9,14.1,31.8c0.9,9.1-0.8,17.2-5,24.3
		c-6.4,6.2-15.1,11.4-25.9,15.8c-11.8,4-24.6,7.5-37.6,11c-12.2,3.8-23.1,7.8-32.2,12.3c-7,5.4-11.7,11.4-14.4,18
		c-0.4,7.5,0.8,15.3,3.2,23.3c3.6,8.4,7.4,16.6,11.1,24.4c4.6,11,6,27.6,1.6,32.8c-4.9,2.5-11.3,4-19,4.5
		c-8.8,0.1-18.6-0.6-29.1-1.9c-11-1.4-22.3-3.3-33.7-5.3c-11.4-2-22.7-4-33.6-6.1c-10.8-1.7-21.1-3.3-31.1-4.8
		c-9.8-1-19.1-1.8-28.2-2.4c-8.9-0.1-17.7-0.1-26.2,0.2c-8.5,0.7-17,1.6-25.4,2.5c-8.5,1.3-16.9,2.6-25.4,3.9
		c-8.5,1.5-17.1,2.8-25.6,3.8c-8.5,1.1-16.7,1.8-24.6,2c-7.8,0.1-15.2-0.4-22.1-1.4c-6.8-1.3-13-3.2-18.7-5.7
		c-7.8-4.5-20-16.9-24.2-24.6c-2.4-5.6-4.2-11.6-5.5-18c-1.2-6.6-1.8-13.6-2.2-20.9c-0.4-7.5-0.6-15.3-0.6-23.3
		c-0.3-8.2-0.7-16.7-1.1-25.4c-0.9-8.9-2-18.1-3.3-27.4c-1.8-9.5-3.8-19.2-5.9-28.9c-2.5-9.9-4.9-19.7-7.3-29.5
		c-2.3-9.8-4.3-19.4-5.7-28.7c-1-9.2-1.2-18-0.6-26.4c1.3-8.1,3.6-15.8,6.9-23c3.9-7,8.7-13.5,14.3-19.7c5.8-6.1,12-11.8,18.2-17.2
		c6-5.5,11.8-10.8,17.3-16c4.9-5.4,9.5-10.7,13.6-15.9c3.5-5.5,6.7-10.8,9.6-15.9c3.8-7.8,11.8-22,16.5-28
		c5.7-5.5,20.6-13.7,29.9-16.5c6.9-1.6,14.3-2.8,22.1-3.6c8.3-0.8,16.9-1.2,25.7-1.3c9.2-0.2,18.5-0.2,27.9,0
		c9.6,0.1,19.2,0.3,28.7,0.7c9.7,0.2,19.3,0.5,28.7,0.9c9.5,0.3,19,0.7,28.2,1.2c9.3,0.4,18.5,1,27.4,1.8
		C490.1,191,498.9,192,507.4,193.3"/>
	
		<linearGradient id="SVGID_8_" gradientUnits="userSpaceOnUse" x1="102.3304" y1="820.7526" x2="102.3304" y2="819.7526" gradientTransform="matrix(435.2779 214.0435 205.0033 -416.8937 -212288.1094 320464.125)">
		<stop  offset="0" style="stop-color:#000000"/>
		<stop  offset="1" style="stop-color:#000000"/>
	</linearGradient>
	<path class="st8" d="M509.5,206.9c7.9,1.7,15.3,3.6,22.1,5.7c6.7,2.2,12.8,4.6,18.2,7.2c7.6,4.2,18.9,13.9,22.6,19.4
		c2.8,5.9,5.1,18.9,5.1,26.1c0.1,5.2,0,10.7-0.1,16.7c0.4,6.3,1.2,13.2,2.3,20.5c2,7.9,4.7,16.3,8.1,25.4
		c4.4,9.6,9.5,19.9,15.4,30.6c6.5,11.1,13.4,22.6,20.5,34.3c7,11.7,13.5,23.2,19.2,34.5c4.6,10.7,7.7,20.8,9,30
		c-0.6,8.3-3.3,15.6-8.4,21.8c-6.9,5.3-15.8,9.6-26.3,13.1c-11.4,3.1-23.6,5.7-36.1,8.2c-11.7,2.9-22.3,6-31.4,9.6
		c-7.2,4.5-12.6,9.7-16,15.4c-1.5,6.7-1.5,13.8-0.2,21.2c2.4,7.9,5.2,15.7,8.1,23.2c4,10.8,6.2,27.6,3.4,33.1
		c-3.5,2.7-8.5,4.4-14.6,5.1c-7.2,0.2-15.4-0.4-24.3-1.6c-9.6-1.5-19.7-3.4-30-5.7c-10.6-2.2-21.2-4.6-31.6-7.1
		c-10.5-2.2-20.7-4.3-30.7-6.3c-9.9-1.6-19.5-3.1-28.8-4.3c-9.3-0.8-18.3-1.4-27.1-1.9c-8.8,0-17.5,0.1-26.1,0.3
		c-8.6,0.5-17.1,1.1-25.5,1.7c-8.5,0.7-16.8,1.4-25,1.8c-8.2,0.5-16,0.6-23.3,0.4c-7.3-0.4-14.1-1.1-20.4-2.4
		c-8.9-2.5-23.5-10.3-29-15.6c-4.6-6.2-10.6-21.2-12.1-29.9c-0.8-6.2-1.3-12.7-1.4-19.5c-0.3-7.1-0.4-14.5-0.4-22.1
		c-0.3-7.9-0.7-16.1-1.1-24.6c-0.8-8.7-1.9-17.7-3-26.8c-1.6-9.4-3.3-18.9-5.1-28.5c-2-9.7-3.9-19.4-5.7-29
		c-1.7-9.5-2.9-18.9-3.6-27.9c-0.3-8.8,0.2-17.2,1.5-25.2c1.9-7.6,4.8-14.8,8.6-21.4c4.3-6.4,9.5-12.3,15.4-17.8
		c6.1-5.4,12.5-10.4,18.9-15.1c6.2-4.8,12.3-9.4,18.1-13.9c5.3-4.8,10.2-9.4,14.6-14c5.7-7.3,15-21.5,19.1-28.2
		c4.1-6.5,13.9-17.4,20-21.7c4.6-2.6,9.8-4.7,15.5-6.3c6.1-1.5,12.7-2.5,19.8-3.2c7.5-0.6,15.3-0.8,23.4-0.7
		c8.4,0.1,17.1,0.4,25.8,1c9,0.5,18.1,1.1,27.1,1.9c9.2,0.7,18.4,1.5,27.5,2.4c9.2,0.8,18.2,1.7,27.1,2.7c8.9,0.9,17.7,2,26.2,3.3
		C493.3,203.8,501.5,205.2,509.5,206.9"/>
	
		<linearGradient id="SVGID_9_" gradientUnits="userSpaceOnUse" x1="102.3319" y1="820.7338" x2="102.3319" y2="819.7338" gradientTransform="matrix(401.8126 231.2945 220.6269 -383.2805 -221676.6406 291120.0312)">
		<stop  offset="0" style="stop-color:#000000"/>
		<stop  offset="1" style="stop-color:#000000"/>
	</linearGradient>
	<path class="st9" d="M509,219.1c7.3,2,14.1,4.1,20.2,6.3c8.8,3.6,23.1,11.7,28.5,16.3c4.6,4.9,10.4,15.9,12,22
		c1.2,6.7,2.7,22.2,3.7,31.2c1.2,6.6,2.7,13.7,4.6,21.3c2.6,8.2,5.8,17,9.5,26.3c4.5,9.9,9.5,20.3,14.9,31.1
		c5.8,11.1,11.8,22.5,17.6,33.9c5.6,11.3,10.6,22.4,14.6,33c3,10,4.5,19.3,4.3,27.7c-1.8,7.4-5.5,13.8-11.2,19.1
		c-7.2,4.4-16.1,7.8-26.4,10.4c-11,2.2-22.6,4-34.4,5.7c-11.2,2-21.4,4.3-30.4,7c-7.4,3.6-13.1,7.9-17.2,12.8
		c-2.4,5.9-3.4,12.2-3.3,18.9c1.2,7.3,3,14.6,5.1,21.6c3.1,10.4,5.6,27.3,3.9,33.1c-4.3,4-19.9,6.5-30.7,5.4
		c-8.2-1.3-16.9-3.1-25.9-5.3c-9.5-2.3-19.2-4.8-28.8-7.4c-9.9-2.5-19.7-5-29.3-7.4c-9.7-2.1-19.2-4.1-28.4-5.9
		c-9.3-1.5-18.4-2.7-27.3-3.8c-8.9-0.8-17.7-1.3-26.2-1.8c-8.6-0.2-17-0.4-25.3-0.5c-8.3,0-16.4,0-24.2-0.2
		c-7.9-0.2-15.2-0.6-22.1-1.2c-6.8-0.8-13.1-1.9-18.9-3.3c-8.1-2.7-21.1-10.4-25.9-15.4c-4-5.8-9-19.8-10.3-27.9
		c-0.7-5.8-1.1-11.9-1.3-18.4c-0.3-6.7-0.5-13.8-0.5-21.2c-0.4-7.7-0.8-15.6-1.2-23.9c-0.8-8.5-1.8-17.3-2.8-26.3
		c-1.4-9.2-2.8-18.5-4.2-27.9c-1.5-9.5-2.9-18.9-4.1-28.2c-1-9.2-1.6-18.2-1.5-26.8c0.4-8.4,1.6-16.3,3.5-23.8
		c2.5-7.1,5.9-13.7,10-19.7c4.7-5.7,10.1-11,16.2-15.8c6.3-4.7,12.8-9,19.4-13c6.4-4.1,12.7-8,18.7-11.8c5.5-4.1,10.7-8.1,15.5-12.1
		c6.2-6.4,16.5-19.2,21-25.3c4.2-6.1,13.7-16.4,19.3-20.5c6.4-3.5,22.1-8.1,31.3-9.2c6.6-0.5,13.6-0.7,20.9-0.5
		c7.6,0.2,15.5,0.7,23.5,1.5c8.3,0.7,16.6,1.6,25.1,2.7c8.6,1,17.2,2.2,25.7,3.4c8.6,1.2,17.1,2.5,25.5,3.9
		c8.4,1.4,16.6,2.9,24.6,4.5C494,215.4,501.7,217.2,509,219.1"/>
	
		<linearGradient id="SVGID_10_" gradientUnits="userSpaceOnUse" x1="102.3344" y1="820.7144" x2="102.3344" y2="819.7144" gradientTransform="matrix(368.0867 245.174 233.6757 -350.8239 -228926.125 263070.4688)">
		<stop  offset="0" style="stop-color:#000000"/>
		<stop  offset="1" style="stop-color:#000000"/>
	</linearGradient>
	<path class="st10" d="M507,230.2c6.7,2.2,12.9,4.5,18.5,6.9c8,3.8,21,12.1,25.9,16.7c4.3,4.9,10.2,16,12.1,22.2
		c1.8,6.9,5,23,6.9,32.4c1.8,6.9,3.9,14.3,6.3,22.3c3,8.5,6.4,17.5,10.2,27c4.3,9.9,8.9,20.3,13.7,31.1c5,10.9,9.8,21.9,14.4,32.9
		c4.2,10.7,7.6,21.1,10.1,30.9c1.5,9.2,1.6,17.6,0.2,24.9c-2.8,6.5-7.2,11.9-13.3,16.3c-7.3,3.5-16.1,6.1-26,7.9
		c-10.4,1.4-21.4,2.5-32.6,3.4c-10.6,1.2-20.4,2.7-29.2,4.7c-7.4,2.8-13.4,6.3-18.1,10.3c-3.2,5-5.1,10.6-5.9,16.5
		c0.2,6.6,1,13.3,2.1,19.9c2.1,9.9,4.2,26.7,3.1,32.8c-3.1,4.5-15.1,8.3-23.8,7.8c-6.7-0.9-14.1-2.4-21.9-4.4
		c-8.3-2.1-16.8-4.5-25.5-7.1c-9-2.5-18.1-5.2-27.1-7.8c-9.2-2.4-18.2-4.8-27.2-7c-9-2-17.9-3.8-26.6-5.4
		c-8.8-1.4-17.3-2.6-25.7-3.7c-8.5-0.9-16.7-1.7-24.7-2.5c-8.1-0.6-15.9-1.3-23.4-2.1c-7.5-0.7-14.5-1.6-21-2.7
		c-9.4-1.9-25.1-7.2-31.4-10.7c-5.5-4.2-13.6-14.7-16.2-21c-2.1-7-4.4-23.2-4.9-32.3c-0.4-6.5-0.7-13.3-1-20.5
		c-0.5-7.5-1-15.2-1.5-23.3c-0.8-8.3-1.7-16.9-2.5-25.6c-1.1-8.9-2.2-18-3.2-27.1c-1.1-9.1-1.9-18.2-2.4-27.1
		c-0.4-8.8-0.3-17.3,0.4-25.4c1.1-7.8,2.8-15.2,5.3-22.1c3-6.5,6.7-12.5,11.3-17.9c5-5.1,10.6-9.7,16.8-13.9c6.4-4,13-7.7,19.7-11
		c6.5-3.4,12.9-6.7,19-9.8c5.7-3.4,11.2-6.8,16.2-10.1c6.7-5.5,17.9-16.8,22.7-22.3c4.5-5.6,13.8-15.3,19-19.3
		c5.8-3.5,19.7-8.1,27.8-9.3c5.9-0.6,12-0.7,18.5-0.6c6.8,0.2,13.8,0.8,21,1.6c7.5,0.8,15,1.8,22.7,3.1c7.8,1.2,15.7,2.6,23.5,4.1
		c7.9,1.4,15.8,3,23.5,4.7c7.8,1.7,15.4,3.4,22.7,5.4C493.2,226,500.3,228,507,230.2"/>
	
		<linearGradient id="SVGID_11_" gradientUnits="userSpaceOnUse" x1="102.3378" y1="820.6935" x2="102.3378" y2="819.6935" gradientTransform="matrix(334.3669 255.7113 243.1433 -317.933 -233237.6875 235006.3594)">
		<stop  offset="0" style="stop-color:#000000"/>
		<stop  offset="1" style="stop-color:#000000"/>
	</linearGradient>
	<path class="st11" d="M504.6,240.6c8.9,3.6,24.3,11.4,30.6,15.6c5.7,4.4,14.6,14.3,18,19.8c3,6,7.9,19.8,10,27.8
		c1.7,5.8,3.4,12.1,5.3,18.8c2.2,7.2,4.7,14.9,7.4,23.1c3.1,8.6,6.5,17.8,10.1,27.4c3.9,9.9,7.9,20.1,11.9,30.5
		c4,10.5,7.7,20.9,11,31.2c2.8,10,4.9,19.5,6,28.4c0.2,8.2-0.8,15.6-3.2,21.9c-3.5,5.5-8.5,10-14.9,13.4c-7.4,2.7-15.9,4.5-25.3,5.5
		c-9.9,0.8-20.2,1.1-30.6,1.3c-10,0.5-19.3,1.3-27.7,2.5c-10.4,3.4-23.6,14.4-26.6,21.9c-0.8,5.8-0.9,11.8-0.6,17.8
		c1,9.3,2.1,25.6,1.3,31.9c-2.3,5-11.5,10.2-18.5,10.5c-5.5-0.4-11.5-1.4-18.1-2.9c-7-1.7-14.4-3.8-22.1-6.2c-8-2.4-16.1-5-24.3-7.6
		c-8.4-2.5-16.8-5-25.2-7.5c-8.5-2.3-16.9-4.5-25.2-6.5c-8.4-1.9-16.6-3.6-24.6-5.3c-8.1-1.5-16-2.9-23.7-4.2
		c-7.7-1.2-15.2-2.5-22.3-3.8c-7.1-1.3-13.8-2.7-19.9-4.1c-8.8-2.4-23.6-8.5-29.5-12.2c-5.2-4.3-12.9-14.7-15.5-20.8
		c-2.2-6.8-4.8-22.5-5.6-31.4c-0.6-6.3-1.1-13-1.5-20c-0.6-7.3-1.2-14.9-1.7-22.7c-0.8-8.1-1.5-16.4-2.2-24.9
		c-0.8-8.6-1.6-17.3-2.1-26c-0.6-8.7-0.9-17.3-0.8-25.7c0.2-8.3,0.9-16.2,2.2-23.7c1.6-7.2,3.9-14,6.8-20.2
		c3.4-5.9,7.5-11.2,12.2-15.9c5.1-4.4,10.9-8.4,17.1-11.9c6.4-3.4,13-6.3,19.7-9c6.5-2.8,13-5.4,19.2-7.8
		c8.7-4.1,23.8-12.8,30.2-17.4c5.6-5,15.6-14.8,20.3-19.4c4.7-4.4,15.2-11.7,21.1-14.3c6.6-2.1,21.6-4.2,30.1-4.3
		c6,0.1,12.2,0.6,18.6,1.4c6.6,0.8,13.4,1.8,20.2,3.1c7,1.3,14.1,2.7,21.1,4.3c7.2,1.6,14.3,3.3,21.3,5.2c7.1,1.8,14,3.8,20.7,5.9
		C492,236,498.5,238.2,504.6,240.6"/>
	
		<linearGradient id="SVGID_12_" gradientUnits="userSpaceOnUse" x1="102.3432" y1="820.6708" x2="102.3432" y2="819.6708" gradientTransform="matrix(300.9273 262.9612 248.95 -284.8931 -234574.75 207157.125)">
		<stop  offset="0" style="stop-color:#000000"/>
		<stop  offset="1" style="stop-color:#000000"/>
	</linearGradient>
	<path class="st12" d="M502.5,250.9c8.2,3.8,22.2,12,28.2,16.5c5.4,4.7,14.3,15.1,17.9,21c4.7,8.5,8.5,18.3,12,29.6
		c4.3,12.6,9,27.1,14.1,43.4c6.2,17.6,12.6,36.7,18.9,56.5c5.6,19.5,9.3,38,9.9,54.3c-0.9,7.2-2.9,13.4-6.1,18.8
		c-4.1,4.5-9.4,8.1-15.9,10.6c-7.2,1.9-15.4,2.9-24.4,3.3c-9.2,0.1-18.9-0.1-28.6-0.5c-9.3-0.1-18.1,0.1-26.2,0.6
		c-10.3,2.2-24.4,10.9-28.5,17.1c-1.6,5-2.6,10.3-3.1,15.6c0.1,11.7,0,22.1-1.2,30.3c-2.5,7.3-7.4,11.6-14.7,12.9
		c-9.3,0.1-20.7-2.2-33.5-6.1c-14.2-4.2-29-9.1-44-14.3c-7.8-2.4-15.6-4.8-23.2-7.1c-7.8-2.2-15.5-4.3-23.1-6.3
		c-7.6-1.9-15.1-3.8-22.3-5.6c-7.3-1.7-14.3-3.5-21-5.3c-6.7-1.8-13-3.6-18.7-5.5c-8.3-3-22.3-9.9-27.9-13.9
		c-3.5-2.9-6.5-6.1-9.1-9.5c-4.9-7.5-8.3-16.1-10.2-25.9c-2.2-10.9-3.6-23.1-4.5-36.5c-1.5-14.5-2.6-30-3.4-46.1
		c-1.1-16.5-1.3-33.1-0.4-48.9c0.8-7.6,2-14.9,3.8-21.8c2.1-6.6,4.8-12.7,8.1-18.2c3.7-5.2,8-9.8,13-13.9c5.3-3.8,11-7.1,17.3-9.9
		c6.4-2.7,12.9-5.1,19.5-7.1c6.5-2.1,12.9-4.1,19.1-5.9c8.8-3.2,24.3-10,31.1-13.7c7.8-5.9,14.9-11.6,21.6-16.7
		c6.3-5.7,13.1-10.2,20.5-13.4c8-3.1,17-4.7,26.8-4.8c10.7,0.1,22.3,1.4,34.2,3.8c6.2,1.2,12.5,2.6,18.8,4.2
		c6.4,1.6,12.8,3.4,19,5.3c6.4,1.9,12.6,4,18.6,6.2C491.1,246.1,496.9,248.4,502.5,250.9"/>
	
		<linearGradient id="SVGID_13_" gradientUnits="userSpaceOnUse" x1="102.3474" y1="820.6462" x2="102.3474" y2="819.6462" gradientTransform="matrix(266.6756 265.6432 251.433 -252.4101 -233102.2812 180232.3281)">
		<stop  offset="0" style="stop-color:#000000"/>
		<stop  offset="1" style="stop-color:#000000"/>
	</linearGradient>
	<path class="st13" d="M501.3,262c10.1,5.3,18.8,11.1,26,17.4c7.1,6.6,13,14.1,17.8,22.5c5,9.1,9.3,19.5,13.4,31.5
		c4.6,13,9.4,27.8,14.3,44.1c5.4,17.2,10.6,35.5,15,53.9c3.5,17.8,5,34.3,3.5,48.3c-4.3,11.4-12.5,19.3-24.6,23.5
		c-14.5,1.8-31.5,1.2-49.6-0.7c-16.9-0.7-31.5-0.1-42.9,2.5c-8.1,5.9-13.4,13.6-16.4,22.2c-1.4,10.4-2.5,20-4.1,28.1
		c-2.4,7.5-6.5,12.4-12.5,14.7c-7.6,1.2-17,0.1-27.8-2.8c-12.1-3.3-25.1-7.7-38.4-12.6c-14.1-4.7-28.3-9.4-42-14.2
		c-14.1-4.3-27.7-8.7-40.2-13.1c-12.6-4.4-23.3-9-32.2-14c-8.7-5.4-15.5-11.5-20.7-18.5c-5-7.7-8.5-16.5-10.8-26.4
		c-2.5-10.9-4.2-23-5.2-36.1c-1.4-14-2.4-29-2.8-44.3c-0.3-15.6,0.3-31,2.1-45.5c2.8-13.7,7.5-25.8,14.3-35.9
		c8.2-8.7,18.5-15.3,30.6-19.9c12.6-4.1,25.4-7.1,37.9-9.4c11.5-3.3,22.1-6.6,31.6-10.1c8.3-4.8,15.9-9.5,22.9-13.7
		c6.6-5,13.3-9.2,20.3-12.2c7.4-3.1,15.5-4.8,24.3-5.2c9.5-0.2,19.6,0.8,30.2,3c11.1,2.2,22.4,5.3,33.5,9.2
		C480.2,252.2,491.1,256.8,501.3,262"/>
	
		<linearGradient id="SVGID_14_" gradientUnits="userSpaceOnUse" x1="102.3542" y1="820.6196" x2="102.3542" y2="819.6196" gradientTransform="matrix(234.7164 266.5113 250.9264 -220.9908 -229411.5 154366.6094)">
		<stop  offset="0" style="stop-color:#000000"/>
		<stop  offset="1" style="stop-color:#000000"/>
	</linearGradient>
	<path class="st14" d="M501,274.4c9.2,5.5,17.2,11.6,24.1,18.4c6.8,7.1,12.6,15,17.6,24c5.1,9.6,9.6,20.6,13.8,32.9
		c4.6,13.2,9,28,13.2,43.9c4.3,16.4,8,33.4,10.7,50.2c1.6,15.8,1.1,30.1-2.1,41.8c-5.5,9.3-14.3,15.3-26.2,17.8
		c-13.7,0.6-29.4-1-46.1-3.8c-15.6-1.6-29.4-2.1-40.7-0.9c-8.7,4.3-14.9,10.3-19.1,17.4c-2.7,8.9-4.9,17.6-7.2,25.1
		c-2.6,7.4-6.4,12.7-11.5,15.7c-6.3,2.2-14.2,2.2-23.3,0.3c-10.2-2.3-21.4-5.9-33-10.3c-12.4-4.3-25-9.1-37.4-14
		c-12.8-4.7-25.1-9.6-36.6-14.7c-11.5-5.1-21.5-10.3-29.9-16c-8.2-6-14.8-12.6-19.9-20c-5-8-8.6-17.1-11.2-27.1
		c-2.6-10.9-4.5-22.8-5.6-35.6c-1.3-13.5-1.9-27.7-1.7-42.2c0.3-14.5,1.8-28.6,4.5-41.7c3.6-12.2,9-22.9,16.2-31.5
		c8.4-7.3,18.7-12.6,30.5-16.1c12.2-3,24.7-4.8,36.8-6c11.4-2.1,22-4.2,31.7-6.5c8.7-3.6,16.6-7.2,23.9-10.5
		c6.8-4.2,13.6-7.8,20.5-10.5c7.1-2.9,14.6-4.7,22.6-5.1c8.5-0.5,17.5,0.3,26.8,2.2c9.8,1.9,19.7,4.9,29.6,8.7
		C482,264.4,491.8,269,501,274.4"/>
	
		<linearGradient id="SVGID_15_" gradientUnits="userSpaceOnUse" x1="102.3622" y1="820.5904" x2="102.3622" y2="819.5904" gradientTransform="matrix(203.7983 264.3546 247.4357 -190.7551 -223379.2812 129781.8828)">
		<stop  offset="0" style="stop-color:#000000"/>
		<stop  offset="1" style="stop-color:#000000"/>
	</linearGradient>
	<path class="st15" d="M501.4,288.7c8.3,5.6,15.6,12.1,22.1,19.3c6.4,7.4,12,15.9,16.9,25.3c4.9,10,9.3,21.3,13.4,33.7
		c4.1,13.1,7.9,27.4,11.2,42.5c3.1,15.2,5.3,30.6,6.3,45.4c-0.1,13.7-2.1,25.6-6.6,35.1c-6.3,7.2-15.3,11.4-26.8,12.6
		c-12.8-0.5-27.2-2.8-42.3-6.3c-14.3-2.4-27.3-3.8-38.2-3.7c-8.9,2.8-15.8,7.2-21.1,12.7c-3.9,7.4-7.1,14.8-10.1,21.5
		c-3.1,6.9-6.8,12.3-11.5,15.7c-5.5,2.8-12.2,3.7-20,2.9c-8.7-1.3-18.2-4-28.3-7.8c-10.8-3.8-21.8-8.3-32.8-13.2
		c-11.3-4.8-22.4-10-32.8-15.5c-10.5-5.5-19.6-11.4-27.4-17.6c-7.6-6.5-13.9-13.6-18.9-21.4c-4.8-8.3-8.5-17.6-11.2-27.7
		c-2.6-10.8-4.4-22.5-5.4-34.9c-1-12.9-1.1-26.2-0.5-39.6c1-13.2,3.2-25.9,6.6-37.6c4.3-10.7,10.1-19.8,17.6-27
		c8.5-5.9,18.5-10.1,29.9-12.4c11.8-1.9,23.7-2.7,35.3-2.9c11.1-1,21.6-2,31.3-3.1c8.9-2.4,17-4.8,24.7-7.2c7.1-3.3,14-6.1,20.9-8.3
		c6.9-2.5,14-4.1,21.4-4.5c7.7-0.5,15.8,0.1,24.1,1.8c8.7,1.7,17.5,4.5,26.2,8.3C484.4,278.4,493.2,283.1,501.4,288.7"/>
	
		<linearGradient id="SVGID_16_" gradientUnits="userSpaceOnUse" x1="102.3726" y1="820.5582" x2="102.3726" y2="819.5582" gradientTransform="matrix(174.1242 259.2327 241.0876 -161.9363 -215130.25 106663.5469)">
		<stop  offset="0" style="stop-color:#000000"/>
		<stop  offset="1" style="stop-color:#000000"/>
	</linearGradient>
	<path class="st16" d="M502.2,304.9c7.4,5.8,14.1,12.4,20.1,19.9c5.9,7.7,11.1,16.4,15.6,26.1c4.5,10.1,8.5,21.3,12,33.5
		c3.4,12.6,6.3,26,8.5,39.9c1.9,13.7,2.7,27.2,2.2,39.9c-1.4,11.4-4.7,21.1-10,28.4c-6.7,5.3-15.6,7.9-26.5,7.9
		c-11.8-1.3-24.8-4.3-38.5-8.3c-13-3-25-5.2-35.5-6.2c-8.9,1.4-16.3,4.3-22.2,8.2c-4.8,5.8-8.9,11.8-12.7,17.5
		c-3.6,6.2-7.6,11.2-12.2,14.7c-5.1,3.2-11,4.7-17.8,4.6c-7.4-0.5-15.6-2.4-24.3-5.5c-9.3-3.2-18.8-7.2-28.5-12
		c-9.9-4.7-19.7-10-29-15.8c-9.3-5.8-17.6-12.1-24.7-18.8c-7-6.9-12.8-14.4-17.6-22.5c-4.6-8.6-8.1-17.9-10.6-28
		c-2.4-10.6-4-21.9-4.7-33.7c-0.6-12.1-0.3-24.4,0.9-36.5c1.6-11.8,4.4-23,8.4-33.2c4.7-9.1,10.8-16.8,18.4-22.6
		c8.3-4.7,18-7.6,28.9-9c11.1-0.9,22.4-0.8,33.5-0.1c10.7,0,20.9,0.1,30.5,0c8.9-1.2,17.2-2.5,25-3.8c7.3-2.2,14.4-4.2,21.3-5.6
		c6.8-1.9,13.7-3.1,20.7-3.3c7.2-0.4,14.6,0.2,22.1,1.9c7.7,1.6,15.6,4.3,23.4,8C487,294.5,494.7,299.2,502.2,304.9"/>
	
		<linearGradient id="SVGID_17_" gradientUnits="userSpaceOnUse" x1="102.3877" y1="820.522" x2="102.3877" y2="819.522" gradientTransform="matrix(145.9352 251.2645 232.071 -134.7875 -204844.0781 85206.9453)">
		<stop  offset="0" style="stop-color:#000000"/>
		<stop  offset="1" style="stop-color:#000000"/>
	</linearGradient>
	<path class="st17" d="M502.5,322.9c6.6,5.8,12.6,12.6,17.9,20.3c5.3,7.8,9.9,16.5,13.9,26.2c3.9,9.9,7.3,20.7,10.1,32.3
		c2.6,11.7,4.5,23.9,5.6,36.2c0.7,11.9,0.3,23.4-1.3,33.8c-2.5,9.2-6.5,16.7-12.3,22c-6.8,3.6-15.3,4.8-25.4,3.8
		c-10.7-2-22.4-5.5-34.6-9.8c-11.7-3.5-22.7-6.3-32.6-8.1c-8.7,0.2-16.2,1.7-22.6,4.1c-5.5,4.2-10.3,8.7-14.8,13.2
		c-6.4,7.3-20.8,16.7-29.6,18c-6.5,0.1-13.6-1.2-21.2-3.7c-8-2.6-16.2-6.2-24.6-10.6c-8.6-4.4-17.1-9.6-25.2-15.6
		c-8.2-5.9-15.5-12.4-21.9-19.4c-6.2-7.1-11.5-14.8-15.8-23.1c-4.1-8.6-7.3-17.9-9.5-27.7c-2.1-10.1-3.3-20.9-3.6-31.9
		c-0.1-11.1,0.7-22.2,2.4-33c2.1-10.4,5.4-20,9.7-28.5c5-7.6,11.2-13.8,18.7-18.3c8.1-3.5,17.3-5.4,27.5-5.8c10.4,0,21,1,31.4,2.4
		c10.2,1,19.9,2,29.2,2.9c8.8,0,17.1-0.2,24.8-0.5c7.4-1.1,14.5-2.1,21.4-2.7c6.8-1.1,13.5-1.7,20.2-1.5c6.8-0.1,13.6,0.8,20.5,2.6
		c7,1.7,14.1,4.4,21,8.1C488.9,312.3,495.9,317,502.5,322.9"/>
	
		<linearGradient id="SVGID_18_" gradientUnits="userSpaceOnUse" x1="102.4035" y1="820.4811" x2="102.4035" y2="819.4811" gradientTransform="matrix(119.3366 240.3241 220.576 -109.5304 -192687.7031 65606.7656)">
		<stop  offset="0" style="stop-color:#000000"/>
		<stop  offset="1" style="stop-color:#000000"/>
	</linearGradient>
	<path class="st18" d="M501.7,342c5.8,5.9,11,12.6,15.7,20.2c4.5,7.7,8.5,16.2,11.8,25.4c3.2,9.4,5.8,19.5,7.7,30
		c1.7,10.5,2.7,21.2,2.8,31.7c-0.3,10-1.6,19.4-4.2,27.6c-3.2,7.1-7.7,12.5-13.6,16c-6.6,2.1-14.6,2.2-23.8,0.4
		c-9.6-2.6-19.9-6.3-30.7-10.8c-10.5-3.8-20.4-7.1-29.5-9.6c-8.3-0.8-15.7-0.6-22.3,0.5c-5.9,2.6-11.2,5.7-16.2,8.9
		c-7,5.6-21.6,13.6-29.7,14.9c-5.9,0.3-12.2-0.5-18.7-2.6c-6.9-2.1-14-5.3-21.2-9.4c-7.4-4.1-14.7-9.2-21.7-15
		c-7.1-5.9-13.4-12.3-18.9-19.4c-5.4-7.1-10-14.8-13.7-23c-3.5-8.4-6.2-17.3-8-26.7c-1.6-9.5-2.4-19.4-2.3-29.4
		c0.4-9.9,1.6-19.7,3.8-29.1c2.6-8.8,6.1-16.9,10.7-23.9c5.1-6.1,11.2-10.9,18.4-14.1c7.7-2.4,16.3-3.3,25.7-2.9
		c9.6,0.8,19.4,2.4,29,4.5c9.5,1.7,18.7,3.6,27.5,5.4c8.5,1,16.5,1.9,24.2,2.7c7.4,0,14.4,0.1,21.2,0.4c6.7-0.2,13.2,0,19.6,0.7
		c6.4,0.5,12.9,1.7,19.2,3.8c6.4,1.9,12.8,4.8,19,8.6C489.7,331.4,495.8,336.1,501.7,342"/>
	
		<linearGradient id="SVGID_19_" gradientUnits="userSpaceOnUse" x1="102.4189" y1="820.4339" x2="102.4189" y2="819.4339" gradientTransform="matrix(94.6738 226.6953 206.8086 -86.3686 -178865.4062 48000.8164)">
		<stop  offset="0" style="stop-color:#000000"/>
		<stop  offset="1" style="stop-color:#000000"/>
	</linearGradient>
	<path class="st19" d="M499.1,361.3c5,5.8,9.5,12.4,13.3,19.6c3.8,7.3,7,15.3,9.5,23.8c2.4,8.6,4.2,17.6,5.3,26.8
		c0.9,9.1,1,18.1,0.2,26.7c-1.1,8.1-3.1,15.4-6.2,21.5c-3.5,5.2-8.2,8.8-13.9,10.8c-6.2,0.9-13.5,0.1-21.7-2.2
		c-8.4-2.9-17.5-6.8-27-11.4c-9.2-4-18.1-7.6-26.4-10.6c-7.8-1.7-14.9-2.5-21.4-2.6c-8.8,2-24.3,8.5-31.6,11.4
		c-7.4,2.7-23.4,3.5-32,1.4c-6-1.8-12.2-4.7-18.3-8.5c-6.3-3.8-12.5-8.6-18.4-14.2c-6-5.7-11.3-11.9-15.9-18.8
		c-4.5-6.8-8.3-14.3-11.4-22.2c-2.9-7.9-4.9-16.3-6.2-25c-1.1-8.7-1.3-17.5-0.8-26.4c0.8-8.6,2.4-17,4.9-24.8
		c2.8-7.3,6.6-13.8,11.2-19.3c5-4.7,10.9-8.2,17.7-10.3c7.1-1.4,15-1.5,23.6-0.4c8.7,1.4,17.6,3.6,26.4,6.3
		c8.7,2.4,17.2,4.9,25.4,7.4c8,1.9,15.7,3.7,23,5.4c7.1,1.1,14,2.1,20.6,3.4c6.5,0.7,12.8,1.7,18.9,3.2c6.1,1.2,12.1,2.9,17.9,5.4
		c5.9,2.3,11.6,5.4,17.2,9.3C488.7,350.7,494.1,355.5,499.1,361.3"/>
	
		<linearGradient id="SVGID_20_" gradientUnits="userSpaceOnUse" x1="102.4406" y1="820.3784" x2="102.4406" y2="819.3784" gradientTransform="matrix(72.1886 210.5347 190.9919 -65.4877 -163585.0781 32525.5)">
		<stop  offset="0" style="stop-color:#000000"/>
		<stop  offset="1" style="stop-color:#000000"/>
	</linearGradient>
	<path class="st20" d="M494.5,379.7c4.3,5.6,7.9,11.9,11,18.6c3,6.8,5.5,14,7.3,21.5c1.7,7.5,2.7,15.2,3.1,22.9
		c0.2,7.5-0.4,14.7-1.7,21.4c-2.8,8.9-13.2,20.4-20.8,22.2c-5.7-0.1-12.2-1.5-19.3-4.2c-7.3-3.1-15.1-7-23.3-11.5
		c-8-4-15.8-7.9-23.2-11.2c-7.1-2.3-13.8-4-20-5.1c-8.7,0.1-24.4,2.8-31.7,4.2c-7.3,1.5-22.2,1.2-29.9-1c-5.3-1.8-10.6-4.4-15.8-8
		c-5.3-3.6-10.5-8-15.4-13.3c-5-5.3-9.3-11.2-13.1-17.7c-3.7-6.4-6.7-13.3-9-20.6c-2.2-7.2-3.6-14.8-4.3-22.5
		c-0.5-7.6-0.3-15.3,0.6-22.8c1.2-7.2,3.1-14.1,5.8-20.5c3-5.8,6.7-10.9,11.2-15c4.8-3.4,10.3-5.8,16.6-6.9c6.5-0.5,13.6,0,21.3,1.6
		c7.8,1.9,15.7,4.5,23.6,7.6c7.8,2.9,15.5,5.9,23,9c7.3,2.6,14.5,5.2,21.3,7.7c6.7,2,13.2,4,19.4,6.1c6.1,1.6,12.1,3.5,17.8,5.7
		c5.7,1.9,11.2,4.2,16.5,7.1c5.3,2.7,10.5,6.1,15.4,10.1C485.5,369.3,490.2,374.1,494.5,379.7"/>
	
		<linearGradient id="SVGID_21_" gradientUnits="userSpaceOnUse" x1="102.4677" y1="820.3113" x2="102.4677" y2="819.3113" gradientTransform="matrix(52.2391 192.4684 173.3306 -47.0448 -147051.0469 19245.8535)">
		<stop  offset="0" style="stop-color:#000000"/>
		<stop  offset="1" style="stop-color:#000000"/>
	</linearGradient>
	<path class="st21" d="M487.5,396.1c7,10.7,11.7,23,14,35.8c2,12.6,1.4,24.9-1.8,35.2c-3.9,8.5-10.7,13.5-20.2,13.8
		c-10.2-2-22.6-8-36.6-16.8c-13.6-7.4-26.5-13.8-38.3-18.4c-11-1.3-21.2-1.8-30.6-2.4c-9.4,0.7-18.8-0.4-27.7-4.2
		C337,435.4,328,428.8,320,419c-8-9.8-13.8-21.6-17.1-34.5c-2.9-12.7-3.2-25.9-0.8-38.4c3-11.4,8.8-20.9,17-27.1
		c9-4.1,20.4-4.4,33.9-0.7c13.7,4.6,27.6,11.2,41,18.5c13.1,5.9,25.5,11.8,37,17.8c11.3,4.5,21.8,9.9,31.3,16.6
		C471.8,377.2,480.4,385.4,487.5,396.1"/>
	
		<linearGradient id="SVGID_22_" gradientUnits="userSpaceOnUse" x1="102.5019" y1="820.2279" x2="102.5019" y2="819.2279" gradientTransform="matrix(35.0462 173.1168 154.1653 -31.2096 -129565.7266 8237.1182)">
		<stop  offset="0" style="stop-color:#000000"/>
		<stop  offset="1" style="stop-color:#000000"/>
	</linearGradient>
	<path class="st22" d="M478.4,409.2c5.6,9.8,9,20.4,10.2,30.9c1,10.1-0.3,19.4-3.8,26.5c-4,5.7-10.2,8.4-18.5,7.1
		c-8.6-2.7-19.1-8.6-30.7-16.8c-11.4-7.1-22.6-13.8-33-19.4c-10-3.1-19.5-5.5-28.2-7.8c-8.8-1.1-17.2-3.5-25-7.7
		c-8.1-4-15.6-10.3-21.9-19.1c-6.3-8.8-10.6-19.1-12.7-30c-1.8-10.6-1.3-21.4,1.5-31.1c3.2-8.7,8.7-15.6,16.3-19.5
		c8-2.3,18-1.4,29.5,2.9c11.7,5,23.7,11.8,35.2,19.4c11.4,6.6,22.4,13.5,32.4,20.4c10,5.9,19.3,12.3,27.5,19.5
		C465.5,391.2,472.7,399.4,478.4,409.2"/>
	
		<linearGradient id="SVGID_23_" gradientUnits="userSpaceOnUse" x1="102.5468" y1="820.1201" x2="102.5468" y2="819.1201" gradientTransform="matrix(20.3426 150.3837 133.7221 -18.0887 -111287.0859 -199.1337)">
		<stop  offset="0" style="stop-color:#000000"/>
		<stop  offset="1" style="stop-color:#000000"/>
	</linearGradient>
	<path class="st23" d="M467.6,418.4c4.3,8.8,6.6,17.5,7.1,25.6c-0.5,11.1-11.1,22.9-20.8,21.2c-7.1-3-15.6-8.6-25.1-16
		c-9.4-6.7-18.7-13.3-27.6-19.3c-8.7-4.3-17.1-8.1-24.8-11.8c-7.8-2.7-15.2-6.2-21.8-10.8c-6.8-4.4-12.9-10.4-17.7-18.1
		c-4.9-7.7-7.8-16.3-8.9-25.1c-0.9-8.5,0.1-16.8,3-23.9c3.2-6.3,8.2-10.9,14.8-12.9c6.9-0.9,15.3,0.9,24.9,5.4
		c9.7,5.1,19.7,11.8,29.3,19.3c9.6,6.9,18.9,14.2,27.4,21.5c8.5,6.6,16.4,13.7,23.2,21.1C457.4,401.6,463.2,409.6,467.6,418.4"/>
	
		<linearGradient id="SVGID_24_" gradientUnits="userSpaceOnUse" x1="102.6059" y1="819.9483" x2="102.6059" y2="818.9483" gradientTransform="matrix(8.7984 127.0032 109.334 -7.5744 -90097.125 -6429.9819)">
		<stop  offset="0" style="stop-color:#000000"/>
		<stop  offset="1" style="stop-color:#000000"/>
	</linearGradient>
	<path class="st24" d="M455.7,423.1c3.8,19.7-5.6,34.9-13.4,32.2c-5.7-3-12.3-8-19.9-14.5c-7.5-6-15-12.2-22.2-18.2
		c-7.2-4.8-14.2-9.5-20.7-14c-6.6-3.8-12.7-8-18.1-12.9c-5.5-4.6-10.2-10.2-13.7-16.8c-3.6-6.6-5.5-13.5-5.9-20.2
		c0.3-9.5,8.8-22.8,16.5-24.8c5.6,0.2,12.5,2.4,20.2,6.9c7.8,4.9,15.8,11.2,23.5,18.2c7.7,6.7,15.2,13.9,22,21.1
		c6.9,6.8,13.2,13.9,18.6,21C448.1,408.2,452.6,415.6,455.7,423.1"/>
	
		<linearGradient id="SVGID_25_" gradientUnits="userSpaceOnUse" x1="102.7235" y1="819.693" x2="102.7235" y2="818.693" gradientTransform="matrix(0.3576 92.1942 85.2789 -0.3308 -69495.1016 -8806.0059)">
		<stop  offset="0" style="stop-color:#000000"/>
		<stop  offset="1" style="stop-color:#000000"/>
	</linearGradient>
	<path class="st25" d="M443.6,423.2c3.8,16.5-11,22.4-26.8,8.7c-11.3-9.7-23.1-20.6-33.2-30.5c-10.3-8.2-19.2-17.7-24-28.5
		c-4.7-15.8,9.6-31.3,26-23c11.9,9,24.2,22,34.5,35.2C430.7,397.6,439.3,411,443.6,423.2"/>
	
		<linearGradient id="SVGID_26_" gradientUnits="userSpaceOnUse" x1="102.8869" y1="819.3195" x2="102.8869" y2="818.3195" gradientTransform="matrix(-4.3173 70.2144 63.8837 3.928 -51463.0547 -10047.627)">
		<stop  offset="0" style="stop-color:#000000"/>
		<stop  offset="1" style="stop-color:#000000"/>
	</linearGradient>
	<path class="st26" d="M432,419.3c2.2,12-8.7,14-19.9,3.2c-8.1-7.9-16.4-17.3-23.6-26.2c-7.3-8-13.5-16.6-16.5-25
		c-2.7-11.6,8.3-19.6,20-11.8c8.4,7.5,17,18,24.2,28.9C423.4,399,429.2,410,432,419.3"/>
	
		<linearGradient id="SVGID_27_" gradientUnits="userSpaceOnUse" x1="103.1361" y1="818.7016" x2="103.1361" y2="817.7016" gradientTransform="matrix(-6.6987 52.5885 44.6628 5.6892 -35449.7734 -9686.1143)">
		<stop  offset="0" style="stop-color:#000000"/>
		<stop  offset="1" style="stop-color:#000000"/>
	</linearGradient>
	<path class="st27" d="M421.3,412c2.9,12.3-3.1,12.6-13.1,0.6c-10.2-10.7-21.1-26.8-24.4-38.2c-3.3-11.5,2.8-14.4,13.4-4.6
		C407.6,380.8,418.3,399.6,421.3,412"/>
</g>
</svg>
