<?xml version="1.0" encoding="utf-8"?>
<!-- Generator: Adobe Illustrator 27.1.0, SVG Export Plug-In . SVG Version: 6.00 Build 0)  -->
<svg version="1.1" xmlns="http://www.w3.org/2000/svg" xmlns:xlink="http://www.w3.org/1999/xlink" x="0px" y="0px"
	 viewBox="0 0 1080 1080" style="enable-background:new 0 0 1080 1080;" xml:space="preserve">
<style type="text/css">
	.st0{fill:#FFFFFF;}
	.st1{fill:#A435F0;}
</style>
<g id="Logo_Union">
	<g id="Calque_7">
	</g>
	<g id="Calque_5">
	</g>
	<g id="Calque_8">
	</g>
	<g id="Calque_9">
		<g>
			<g>
				<path class="st0" d="M684.6,727.75c-18.32,110.57-77.02,260.58-260.57,260.58c-214.11,0-293.64-172.37-320.83-263.37
					c-8.38-28.44-12.62-57.94-12.62-87.53V135.74c63.53,44.44,136.6,122.91,146.44,251.9c1.54,20.15,1.83,45.79,2.22,72.98
					c1.73,143.54,4.72,383.68,212.57,419.45c10.41,1.73,20.53,2.6,30.37,2.6C579.04,882.67,645.27,799.86,684.6,727.75z"/>
				<path class="st0" d="M636.11,650.44c-28.34,64.59-87.63,167.93-171.31,153.57c-133.42-22.95-146.34-175.94-148.46-344.35
					c-0.39-28.44-0.68-55.24-2.41-77.8c-10.41-137.28-78.47-227.7-146.92-284.58c103.73,19.28,276.77,75.67,277.93,236.38v164.65
					c0,22.66,3.28,45.21,9.93,66.91C472.8,623.64,520.33,713,636.11,650.44z"/>
				<path class="st0" d="M844.74,988.33L844.74,988.33c-79.92,0-144.7-64.78-144.7-144.7V236.37c0-79.92,64.78-144.7,144.7-144.7h0
					c79.92,0,144.7,64.78,144.7,144.7v607.27C989.43,923.55,924.65,988.33,844.74,988.33z"/>
			</g>
			<g>
				<path class="st1" d="M684.6,727.75c-18.32,110.57-77.02,260.58-260.57,260.58c-214.11,0-293.64-172.37-320.83-263.37
					c-8.38-28.44-12.62-57.94-12.62-87.53V135.74c63.53,44.44,136.6,122.91,146.44,251.9c1.54,20.15,1.83,45.79,2.22,72.98
					c1.73,143.54,4.72,383.68,212.57,419.45c10.41,1.73,20.53,2.6,30.37,2.6C579.04,882.67,645.27,799.86,684.6,727.75z"/>
				<path class="st1" d="M636.11,650.44c-28.34,64.59-87.63,167.93-171.31,153.57c-133.42-22.95-146.34-175.94-148.46-344.35
					c-0.39-28.44-0.68-55.24-2.41-77.8c-10.41-137.28-78.47-227.7-146.92-284.58c103.73,19.28,276.77,75.67,277.93,236.38v164.65
					c0,22.66,3.28,45.21,9.93,66.91C472.8,623.64,520.33,713,636.11,650.44z"/>
				<path class="st1" d="M844.74,988.33L844.74,988.33c-79.92,0-144.7-64.78-144.7-144.7V236.37c0-79.92,64.78-144.7,144.7-144.7h0
					c79.92,0,144.7,64.78,144.7,144.7v607.27C989.43,923.55,924.65,988.33,844.74,988.33z"/>
			</g>
		</g>
	</g>
</g>
<g id="Calque_6">
</g>
<g id="Calque_4">
</g>
<g id="Calque_3">
</g>
<g id="Symbole">
</g>
</svg>
