<?xml version="1.0" encoding="utf-8"?>
<!-- Generator: Adobe Illustrator 27.1.0, SVG Export Plug-In . SVG Version: 6.00 Build 0)  -->
<svg version="1.1" id="Calque_1" xmlns="http://www.w3.org/2000/svg" xmlns:xlink="http://www.w3.org/1999/xlink" x="0px" y="0px"
	 viewBox="0 0 1080 1080" style="enable-background:new 0 0 1080 1080;" xml:space="preserve">
<style type="text/css">
	.st0{fill:#A435F0;}
	.st1{enable-background:new    ;}
</style>
<g id="Calque_7">
</g>
<g id="Calque_5">
</g>
<g id="Calque_8">
</g>
<g>
	<g>
		<g>
			<path class="st0" d="M246.8,600c-5.2,31.4-21.9,73.9-73.9,73.9c-60.8,0-83.3-48.9-91-74.7c-2.4-8.1-3.6-16.4-3.6-24.8V432
				c18,12.6,38.8,34.9,41.5,71.5c0.4,5.7,0.5,13,0.6,20.7c0.5,40.7,1.3,108.9,60.3,119c2.9,0.5,5.8,0.7,8.6,0.7
				C216.9,644,235.7,620.5,246.8,600z"/>
			<path class="st0" d="M233.1,578.1c-8,18.3-24.9,47.7-48.6,43.6c-37.9-6.5-41.5-49.9-42.1-97.7c-0.1-8.1-0.2-15.7-0.7-22.1
				c-2.9-39-22.3-64.6-41.7-80.8c29.4,5.5,78.5,21.5,78.9,67.1v46.7c0,6.4,0.9,12.8,2.8,19C186.7,570.5,200.2,595.9,233.1,578.1z"/>
			<path class="st0" d="M292.3,674L292.3,674c-22.7,0-41.1-18.4-41.1-41.1V460.6c0-22.7,18.4-41.1,41.1-41.1l0,0
				c22.7,0,41.1,18.4,41.1,41.1v172.3C333.3,655.6,315,674,292.3,674z"/>
		</g>
		<g>
			<path class="st0" d="M246.8,600c-5.2,31.4-21.9,73.9-73.9,73.9c-60.8,0-83.3-48.9-91-74.7c-2.4-8.1-3.6-16.4-3.6-24.8V432
				c18,12.6,38.8,34.9,41.5,71.5c0.4,5.7,0.5,13,0.6,20.7c0.5,40.7,1.3,108.9,60.3,119c2.9,0.5,5.8,0.7,8.6,0.7
				C216.9,644,235.7,620.5,246.8,600z"/>
			<path class="st0" d="M233.1,578.1c-8,18.3-24.9,47.7-48.6,43.6c-37.9-6.5-41.5-49.9-42.1-97.7c-0.1-8.1-0.2-15.7-0.7-22.1
				c-2.9-39-22.3-64.6-41.7-80.8c29.4,5.5,78.5,21.5,78.9,67.1v46.7c0,6.4,0.9,12.8,2.8,19C186.7,570.5,200.2,595.9,233.1,578.1z"/>
			<path class="st0" d="M292.3,674L292.3,674c-22.7,0-41.1-18.4-41.1-41.1V460.6c0-22.7,18.4-41.1,41.1-41.1l0,0
				c22.7,0,41.1,18.4,41.1,41.1v172.3C333.3,655.6,315,674,292.3,674z"/>
		</g>
	</g>
</g>
<g class="st1">
	<path d="M397.6,622.4v6.2h-31V577h7.2v45.3L397.6,622.4L397.6,622.4z"/>
	<path d="M441.7,628.6c-0.8-2.2-1.6-4.4-2.4-6.6c-0.7-2.2-1.5-4.4-2.3-6.6h-23.4l-4.7,13.2h-7.5c2-5.5,3.8-10.5,5.6-15.1
		c1.7-4.6,3.4-9,5.1-13.2s3.3-8.1,4.9-11.9s3.3-7.6,5.1-11.3h6.6c1.8,3.7,3.5,7.5,5.1,11.3s3.3,7.8,4.9,11.9
		c1.7,4.2,3.4,8.6,5.1,13.2c1.7,4.6,3.6,9.7,5.6,15.1L441.7,628.6L441.7,628.6z M434.9,609.5c-1.6-4.3-3.2-8.5-4.7-12.5
		c-1.6-4-3.2-7.9-4.9-11.6c-1.7,3.7-3.4,7.6-4.9,11.6c-1.6,4-3.1,8.2-4.6,12.5H434.9z"/>
	<path d="M470.5,629.1c-1,0-2.2,0-3.4-0.1c-1.2,0-2.4-0.1-3.6-0.2c-1.2-0.1-2.4-0.2-3.6-0.4c-1.2-0.1-2.3-0.3-3.3-0.6v-50
		c1-0.2,2.1-0.4,3.3-0.6c1.2-0.1,2.4-0.3,3.6-0.4c1.2-0.1,2.4-0.2,3.6-0.2s2.3-0.1,3.3-0.1c3,0,5.8,0.2,8.4,0.7
		c2.6,0.4,4.9,1.2,6.8,2.3s3.4,2.5,4.5,4.2s1.6,3.9,1.6,6.4c0,2.8-0.7,5.1-2,7c-1.3,1.8-3.1,3.2-5.4,4.1c3,0.9,5.4,2.3,7.2,4.2
		c1.8,1.9,2.7,4.7,2.7,8.2c0,5.2-1.9,9-5.7,11.6C484.7,627.8,478.7,629.1,470.5,629.1z M463.7,598.8h7.6c1.8,0,3.5-0.1,5.1-0.4
		c1.6-0.2,3-0.7,4.1-1.3c1.2-0.6,2.1-1.5,2.8-2.5c0.7-1,1-2.4,1-3.9s-0.3-2.7-1-3.8c-0.7-1-1.6-1.8-2.9-2.5
		c-1.2-0.6-2.6-1.1-4.3-1.4s-3.4-0.4-5.2-0.4c-1.8,0-3.3,0-4.3,0.1c-1,0-2,0.1-2.8,0.2v15.9H463.7z M463.7,604.6v18.2
		c0.5,0,1.2,0.1,1.9,0.1c0.6,0,1.4,0.1,2.3,0.1s1.9,0,3,0c2.1,0,4.2-0.1,6.1-0.4c1.9-0.3,3.6-0.8,5-1.5s2.6-1.7,3.5-2.9
		s1.3-2.8,1.3-4.7c0-1.7-0.3-3.1-1-4.3c-0.6-1.2-1.6-2.1-2.8-2.8c-1.2-0.7-2.7-1.2-4.4-1.5c-1.7-0.3-3.6-0.4-5.7-0.4h-9.2V604.6z"/>
</g>
<g>
	<path d="M366.6,559.9V458.8h13v89.6H428v11.5L366.6,559.9L366.6,559.9L366.6,559.9z"/>
	<path d="M497.5,561.4c-6.5,0-12.3-0.9-17.5-2.6c-5.2-1.7-9.6-4.3-13.2-7.8s-6.4-7.9-8.4-13.2s-3-11.7-3-18.9v-60.1h13v60.1
		c0,10.9,2.6,18.8,7.7,23.7s12.3,7.3,21.3,7.3s16.2-2.5,21.3-7.3s7.7-12.8,7.7-23.7v-60.1h13v60.1c0,7.3-1,13.6-3,18.9
		c-2,5.3-4.8,9.8-8.4,13.2s-8,6.1-13.2,7.8C509.8,560.5,503.9,561.4,497.5,561.4z"/>
	<path d="M731.3,559.9V458.8h13v101.1L731.3,559.9L731.3,559.9z"/>
	<path d="M831,561.4c-7.9,0-15-1.3-21.3-3.9c-6.4-2.6-11.7-6.2-16.1-10.8s-7.8-10.1-10.1-16.5s-3.6-13.3-3.6-20.9s1.2-14.5,3.6-20.9
		c2.4-6.4,5.8-11.9,10.1-16.5c4.4-4.6,9.8-8.2,16.1-10.8s13.5-3.9,21.3-3.9s15,1.3,21.3,3.9c6.4,2.6,11.7,6.2,16.1,10.8
		s7.8,10.1,10.1,16.5s3.6,13.3,3.6,20.9s-1.2,14.5-3.6,20.9s-5.8,11.9-10.1,16.5s-9.8,8.2-16.1,10.8S838.9,561.4,831,561.4z
		 M831,549.9c5.8,0,11.1-1,15.7-3c4.6-2,8.6-4.7,11.9-8.2s5.8-7.8,7.6-12.8s2.7-10.5,2.7-16.6s-0.9-11.6-2.7-16.6s-4.3-9.3-7.6-12.8
		s-7.2-6.3-11.9-8.2s-9.9-3-15.7-3s-11.1,1-15.7,3s-8.6,4.7-11.9,8.2s-5.8,7.8-7.6,12.8s-2.7,10.5-2.7,16.6c0,6,0.9,11.6,2.7,16.6
		s4.3,9.3,7.6,12.8s7.2,6.3,11.9,8.2C819.9,548.9,825.2,549.9,831,549.9z"/>
	<path d="M987.2,559.9l-56.6-82.6v82.6h-13V458.8h14.5l56.6,82.6v-82.6h13v101.1L987.2,559.9L987.2,559.9z"/>
	<path d="M659.5,559.9l-56.6-82.6v82.6h-13V458.8h14.5l56.6,82.6v-82.6h13v101.1L659.5,559.9L659.5,559.9z"/>
</g>
<g id="Calque_6">
</g>
<g id="Calque_4">
</g>
<g id="Calque_3">
</g>
<g id="Symbole">
</g>
</svg>
