<svg xmlns="http://www.w3.org/2000/svg" version="1.1" xmlns:xlink="http://www.w3.org/1999/xlink" xmlns:svgjs="http://svgjs.dev/svgjs" viewBox="0 0 800 800" opacity="0.79"><defs><linearGradient x1="50%" y1="0%" x2="50%" y2="100%" id="uundulate-grad"><stop stop-color="hsl(276 86% 57%)" stop-opacity="1" offset="45%"></stop><stop stop-color="hsl(265, 55%, 60%)" stop-opacity="1" offset="100%"></stop></linearGradient></defs><g stroke-width="2" stroke="url(#uundulate-grad)" fill="none"><path d="M995.1151879693998 -41.784354644457494C1085.3661291305414 216.9858802017734 1019.3020098963227 714.2115987429447 864.6118225231194 940.4376201314858C709.921635149916 1166.663641520027 473.1633994590152 1112.2992169337308 252.60228857802576 1044.1005480205408C32.041177697036346 975.9018791073509 -118.05460935861043 831.0706431086203 -194.0815097056307 613.0840093481731C-270.10841005265104 395.09737558772576 -242.63700280751834 188.33627190343452 -112.32683308767014 -2.2352940296063935C17.983336632177952 -192.8068599626472 200.69021722941875 -293.4201195023302 431.40730494964237 -301.6595071304243C662.1243926698658 -309.8988947585184 904.8642468082587 -300.55458949068833 995.1151879693998 -41.784354644457494C1085.3661291305414 216.9858802017734 1019.3020098963227 714.2115987429447 864.6118225231194 940.4376201314858 "></path><path d="M970.3187485068893 -23.376641411794594C1056.8092337863163 224.6115003158434 993.4977861868565 701.1194805844657 845.2530232875367 917.9194177484844C697.008260388217 1134.7193549125034 470.1149511844369 1082.6201146839692 258.7438865901555 1017.2630569754954C47.37282199587389 951.9059992670216 -96.4689739324541 813.1093981015717 -169.32808676501526 604.2055407478097C-242.18719959757635 395.3016833940478 -215.86043432099086 197.15562569660187 -90.9798550061364 14.52454167743781C33.90072430871817 -168.1065423417263 208.99481821440725 -264.52758273392254 430.0986939462881 -272.42366254417936C651.2025696781691 -280.31974235443624 883.828263227462 -271.36478313943246 970.3187485068893 -23.376641411794594C1056.8092337863163 224.6115003158434 993.4977861868565 701.1194805844657 845.2530232875367 917.9194177484844 "></path><path d="M945.5222785268002 -4.969019731865956C1028.2523079245132 232.237028877179 967.6935319598126 688.0272708732525 825.8941935343762 895.4011238127487C684.09485510894 1102.774976752245 467.06647239228084 1052.9409208814732 264.88545408470713 990.4254743777158C62.70443577713354 927.9100278739581 -74.88336902387596 795.1480615417886 -144.57469434197787 595.326980594712C-214.26601966007985 395.5058996476354 -189.08389635204156 205.97488793703496 -69.63290744218074 31.28428583174764C49.818081467680145 -143.40631627353986 217.2993886818174 -235.63513751824928 428.7900524253557 -243.18790951066887C640.2807161688938 -250.74068150308847 862.7922491290874 -242.1750683409109 945.5222785268002 -4.969019731865956C1028.2523079245132 232.237028877179 967.6935319598126 688.0272708732525 825.8941935343762 895.4011238127487 "></path><path d="M920.7257780291332 13.438632465640694C999.6953515451319 239.86258795609274 941.8892472151904 674.9350916796175 806.5353332636375 872.882860394591C671.1814193120847 1070.8306291095646 464.01796308254643 1023.2617575965553 271.02699106168075 963.5879222975141C78.03601904081495 903.9140869984728 -53.297794632875934 777.1867554995838 -119.82133243651867 586.4484509591925C-186.34487024016147 395.7101464188012 -162.30738890067033 214.79418069504618 -48.285990395803196 48.04406050363548C65.73540810906388 -118.70605968777528 225.60392863164964 -206.7426617849979 427.4813803868452 -213.9521259595802C629.3588321420407 -221.16159013416257 841.7562045131344 -212.9853230248113 920.7257780291332 13.438632465640694C999.6953515451319 239.86258795609274 941.8892472151904 674.9350916796175 806.5353332636375 872.882860394591 "></path><path d="M895.9293690842005 31.846345698303594C971.138486718485 247.48820807016273 916.0850540233027 661.8429735211389 787.1765645456333 850.3646580115899C658.2680750679638 1038.886342502041 460.9695453255465 993.5826553467939 277.16861959138873 936.7504312524688C93.36769385723073 879.918207158144 -31.71212868914148 759.2255104925352 -95.0678789783251 577.5699823588293C-158.42362926750866 395.9144542251231 -135.53078989656473 223.61353448821365 -26.93898179669128 64.80389621067968C81.65282630318222 -94.0057420668544 233.90856013421626 -177.85012501659025 426.1727999010692 -184.71628137333533C618.4370396679221 -191.58243773008041 820.7202514499161 -183.79551667355543 895.9293690842005 31.846345698303594C971.138486718485 247.48820807016273 916.0850540233027 661.8429735211389 787.1765645456333 850.3646580115899 "></path><path d="M871.1328685865335 50.25405893096661C942.5815303391037 255.11382818423272 890.2807692786805 648.7508553626599 767.8177042748946 827.8464556285885C645.3546392711087 1006.9420558945171 457.9210360158121 963.9035530970323 283.3101565683621 909.9129402074236C108.69927712091214 855.9223273178147 -10.126554298141457 741.2642654854865 -70.31451707286584 568.6915137584658C-130.50247984759028 396.11876203144504 -108.75428244519355 232.4328882813811 -5.592064750313739 81.56373191772377C97.57015294456608 -69.30542444593357 242.2131000840484 -148.95758824818262 424.8641278625586 -155.48043678709047C607.515155641069 -162.00328532599826 799.6842068339633 -154.6057103222995 871.1328685865335 50.25405893096661C942.5815303391037 255.11382818423272 890.2807692786805 648.7508553626599 767.8177042748946 827.8464556285885 "></path><path d="M846.3363986064446 68.66171112847326C914.0246044773005 262.73938726314645 864.4765150516364 635.6586761690248 748.4588745217338 805.3281922104309C632.4412339918315 974.9977082518367 454.8725572236559 934.2243898121144 289.45172406291385 883.0753881272219C124.03089090217168 831.9263864423294 11.459050610436748 723.3029594432817 -45.561124649828514 559.8129841229461C-102.58129991009372 396.32300880261073 -81.9777444762442 241.25218103939233 15.754882813641927 98.32350658961172C113.48751010352805 -44.60516786016899 250.51767055145865 -120.06511251493123 423.5554863416263 -126.2446532360018C596.593302131794 -132.42419395707236 778.6481927355885 -125.41596500619988 846.3363986064446 68.66171112847326C914.0246044773005 262.73938726314645 864.4765150516364 635.6586761690248 748.4588745217338 805.3281922104309 "></path><path d="M821.5399286263555 87.06942436113627C885.4676786154973 270.36500737721644 838.6722608245923 622.566558010546 729.1000447685733 782.8099898274295C619.5278287125545 943.053421644313 451.82407843149963 904.545287562353 295.5932915574655 856.2378970821767C139.36250468343133 807.9305066020006 33.044655519014896 705.3417144362329 -20.807732226791188 550.934515522583C-74.66011997259722 396.5273166089328 -55.2012065072949 250.0715348325598 37.101830377597594 115.08334229665581C129.40486726249003 -19.904850239248105 258.8222410188689 -91.17257574652359 422.2468448206939 -97.00880864975693C585.6714486225189 -102.84504155299021 757.6121786372139 -96.22615865494396 821.5399286263555 87.06942436113627C885.4676786154973 270.36500737721644 838.6722608245923 622.566558010546 729.1000447685733 782.8099898274295 "></path><path d="M796.7434586462668 105.47707655864292C856.9107527536942 277.9905664561302 812.8680065975484 609.474378816911 709.7412150154128 760.2917264092719C606.6144234332774 911.1090740016327 448.77559963934345 874.8661242774351 301.7348590520171 829.400345001975C154.69411846469086 783.9345657265151 54.63026042759304 687.3804083940281 3.9456601962461946 542.0559858870633C-46.738940035100654 396.73156338009846 -28.424668538345543 258.8908275905709 58.4487779415532 131.84311696854365C145.322224421452 4.795406346516472 267.12681148627917 -62.280100013272204 420.93820329976154 -67.77302509866826C574.749595113244 -73.26595018406437 736.5761645388393 -67.03641333884434 796.7434586462668 105.47707655864292C856.9107527536942 277.9905664561302 812.8680065975484 609.474378816911 709.7412150154128 760.2917264092719 "></path><path d="M771.9469886661777 123.88478979130582C828.353826891891 285.61618657020017 787.0637523705045 596.3822606584321 690.3823852622522 737.7735240262705C593.7010181540003 879.1647873941088 445.7271208471873 845.1870220276737 307.87642654656884 802.5628539569298C170.0257322459504 759.9386858861862 76.21586533617119 669.4191633869796 28.69905261928352 533.1775172867C-18.81776009760415 396.9358711864204 -1.648130569396244 267.71018138373836 79.79572550550887 148.60295267558786C161.23958158041398 29.495723967437357 275.4313819536894 -33.387563244864566 419.62956177882916 -38.53718051242339C563.8277416039689 -43.686797779982214 715.5401504404645 -37.846606987588416 771.9469886661777 123.88478979130582C828.353826891891 285.61618657020017 787.0637523705045 596.3822606584321 690.3823852622522 737.7735240262705 "></path><path d="M747.1505492036667 142.29250302396883C799.7969315476662 293.24180668427016 761.2595286610385 583.2901424999534 671.0235860266698 715.2553216432693C580.7876433923012 847.220500786585 442.67867257260923 815.5079197779119 314.0180245586986 775.7253629118845C185.35737654478805 735.9428060458567 97.80150076232752 651.4579183799308 53.45247555989903 524.2990486863367C9.103450357470479 397.14017899274245 25.128437917131237 276.5295351769057 101.14270358704266 165.36278838263195C177.15696925695408 54.196041588358185 283.7359829386779 -4.495026476456928 418.320950775475 -9.301335926178467C552.905918612272 -14.107645375900063 694.5041668596677 -8.656800636332548 747.1505492036667 142.29250302396883C799.7969315476662 293.24180668427016 761.2595286610385 583.2901424999534 671.0235860266698 715.2553216432693 "></path><path d="M722.3541097411562 160.70015522147548C771.2400362034409 300.8673657631839 735.4553049515725 570.1979633063183 651.6647867910874 692.7370582251115C567.8742686306023 815.2761531439046 439.63022429803107 785.828756492994 320.15962257082833 748.8878108316828C200.6890208436257 711.9468651703714 119.3871361884838 633.496612337726 78.20589850051448 515.420519050817C37.024660812545164 397.34442576390813 51.90500640365872 285.3488279349169 122.48968166857645 182.1225630545199C193.0743569334942 78.89629817412276 292.0405839236663 24.39744925679446 417.01233977212064 19.93444762491015C541.9840956205751 15.471445993025839 673.4681832788713 20.532944679767127 722.3541097411562 160.70015522147548C771.2400362034409 300.8673657631839 735.4553049515725 570.1979633063183 651.6647867910874 692.7370582251115 "></path><path d="M697.557609243489 179.10786845413844C742.6830798240599 308.4929858772539 709.6510202069504 557.1058451478395 632.3059265203487 670.2188558421101C554.9608328337471 783.3318665363809 436.58171498829665 756.1496542432326 326.30115954780194 722.0503197866376C216.02060410730724 687.9509853300426 140.97271057948387 615.5353673306773 102.95926040597368 506.54205045045376C64.94581023246354 397.54873357023007 78.68151385502989 294.1681817280844 143.836598714954 198.882398761564C208.99168357487804 103.59661579504359 300.34512387349844 53.2899860252021 415.70366773361025 49.17029221115507C531.0622115937219 45.05059839710799 652.4321386629184 49.722751031022995 697.557609243489 179.10786845413844C742.6830798240599 308.4929858772539 709.6510202069504 557.1058451478395 632.3059265203487 670.2188558421101 "></path><path d="M672.7611392634001 197.5154596164889C714.1261539622566 316.1184839210114 683.8467659799063 544.0136049190481 612.9470967671881 647.7005313887962C542.04742755447 751.3874578585444 433.5332361961405 726.4704299231585 332.44272704235357 695.2127066712798C231.35221788856677 663.954983419401 162.55831548806202 597.5740002533162 127.71265282901106 497.6634597797779C92.8669901699601 397.7529193062396 105.45805182397925 302.98741345093936 165.18354627890966 215.6421123982957C224.90904073384007 128.29681134565192 308.6496943409087 82.18240072329723 414.39502621267786 78.40601472708744C520.1403580844469 74.62962873087764 631.3961245645437 78.91243531196642 672.7611392634001 197.5154596164889C714.1261539622566 316.1184839210114 683.8467659799063 544.0136049190481 612.9470967671881 647.7005313887962 "></path><path d="M647.9646998008893 215.9231728491518C685.5692586180315 323.74410403508136 658.0425422704404 530.9214867605695 593.5882975316057 625.1823290057949C529.134052792771 719.4431712510205 430.4847879215623 696.791327673397 338.58432505448343 668.3752156262344C246.68386218740443 639.959103579072 184.1439509142183 579.6127552462676 152.4660757696265 488.78499117941465C120.78820062503473 397.95722711256155 132.23462031050667 311.8067672441068 186.53052436044345 232.40194810533984C240.82642841038017 152.9971289665728 316.9542953258972 111.07493749170487 413.0864152093236 107.6418593133323C509.21853509275013 104.20878113495979 610.3601409837471 108.10224166322229 647.9646998008893 215.9231728491518C685.5692586180315 323.74410403508136 658.0425422704404 530.9214867605695 593.5882975316057 625.1823290057949 "></path><path d="M623.1681840444332 234.33085556423663C657.0122869798612 331.3696936315732 632.2382422670291 517.8293380845124 574.2294220020779 602.6640961052154C516.2206017371267 687.4988541259183 427.43626335303884 667.1121949060572 344.72584677266786 641.537694063611C262.0154301922968 615.9631932211647 205.7295100464293 561.6514797216408 177.2194224162967 479.90649206147305C148.70933478616405 398.16150440130536 159.01111250308884 320.62609051969616 207.87742614803187 249.16175329480586C256.74373979297496 177.6974160699155 325.25882001694026 139.96744374253439 411.77772791202415 136.8776733819991C498.2966358071079 133.78790302146382 589.3240811090052 137.2920174969001 623.1681840444332 234.33085556423663C657.0122869798612 331.3696936315732 632.2382422670291 517.8293380845124 574.2294220020779 602.6640961052154 "></path><path d="M598.3717293231334 252.73853827932146C628.4553763768471 338.9952832280651 606.4340032987742 504.7371894084555 554.8706075077064 580.1458632046359C503.3072117166387 655.5545370008164 424.3877998196717 637.4330621387176 350.86742952600855 614.7001725009875C277.34705923234543 591.9672828632575 227.31513021379652 543.690204197014 201.9728300981231 471.0279929435317C176.63052998244967 398.3657816900493 185.7876657308272 329.4454137952855 229.2243889707766 265.9215584842718C272.661112210726 202.39770317325826 333.5634057431396 168.8599499933639 410.4691016498807 166.11348745066584C487.37479755662207 163.36702490796785 568.2880822694196 166.48179333057783 598.3717293231334 252.73853827932146C628.4553763768471 338.9952832280651 606.4340032987742 504.7371894084555 554.8706075077064 580.1458632046359 "></path><path d="M573.5752746018334 271.1462209944063C599.8984657738331 346.62087282455695 580.6297643305193 491.64504073239857 535.5117930133349 557.6276303040565C490.39382169615055 623.6102198757144 421.3393362863046 607.7539293713778 357.00901227934924 587.8626509383641C292.678688272394 567.9713725053502 248.9007503811638 525.7289286723873 226.72623777994949 462.1494938255903C204.55172517873524 398.5700589787931 212.56421895856562 338.26473707087473 250.57135179352133 282.68136367373785C288.57848462847704 227.09799027660097 341.86799146933896 197.7524562441934 409.1604753877375 195.34930151933264C476.452959306136 192.94614679447187 547.2520834298339 195.67156916425563 573.5752746018334 271.1462209944063C599.8984657738331 346.62087282455695 580.6297643305193 491.64504073239857 535.5117930133349 557.6276303040565 "></path><path d="M548.7787741041664 289.5539037094911C571.3415093944518 354.2464624210488 554.825479585897 478.55289205634165 516.1529327425962 535.1093974034769C477.48038589929547 591.6659027506123 418.2908269765702 578.0747966040382 363.15054925632285 561.0251293757407C308.0102715360755 543.9754621474432 270.4863247721638 507.7676531477605 251.47959968540874 453.2709947076487C232.47287459865368 398.7743362675369 239.34072640993685 347.08406034646407 271.9182688398989 299.44116886320387C304.4958112698609 251.79827737994367 350.1725314191711 226.64496249502292 407.851803349227 224.58511558799938C465.53107527928285 222.5252686809759 526.2160388138811 224.86134499793337 548.7787741041664 289.5539037094911C571.3415093944518 354.2464624210488 554.825479585897 478.55289205634165 516.1529327425962 535.1093974034769 "></path><path d="M523.9823499004447 307.9615864245759C542.7846293090158 361.8720520175407 529.0212711352202 465.4607433802847 496.7941487658029 512.5911645028975C464.5670263963855 559.7215856255102 415.2423939607811 548.3956638366985 369.2921625272417 534.1876078131172C323.3419310937022 519.979551789536 292.07197545710915 489.8063776231338 276.23303788481326 444.3924955897073C260.39410031251737 398.97861355628083 266.11731015525334 355.9033836220534 293.2652621802217 316.2009740526699C320.4132142051901 276.4985644832864 358.4771476629486 255.53746874585244 406.5432076046618 253.82092965666618C454.6092675463751 252.10439056747987 505.1800704918735 254.05112083161117 523.9823499004447 307.9615864245759C542.7846293090158 361.8720520175407 529.0212711352202 465.4607433802847 496.7941487658029 512.5911645028975 "></path><path d="M499.1858646615667 326.36929965723886C514.2276881884236 369.49767213161067 503.21700164938716 452.3686252218058 477.4353037538532 490.07296211989615C451.65360585831934 527.7772990179863 412.19389990983586 518.7165615869369 375.4337147630043 507.35011676807187C338.6735296161727 495.98367194920684 313.6575651068983 471.84513261608515 300.9864150490615 435.51402698934396C288.3152649912248 399.18292136260277 292.89383286541363 364.7227374152209 314.61219448538833 332.96080975971404C336.33055610536303 301.19888210420726 366.7817028715698 284.4300055142601 405.23455082494036 283.05677424291105C443.68739877831104 281.683542971562 484.1440411347098 283.24092718286704 499.1858646615667 326.36929965723886C514.2276881884236 369.49767213161067 503.21700164938716 452.3686252218058 477.4353037538532 490.07296211989615 "></path><path d="M474.3893946814777 344.7769365959565C485.67076232662043 377.12321595173535 477.41274742234305 439.27643076938176 458.07647400069266 467.55468344294945C438.74020057904227 495.8329361165171 409.14542111767963 489.03738304322997 381.57528225755595 480.5125494290812C354.0051433974323 471.98771581493247 335.24317001547644 453.8838113150912 325.7398074720989 426.6354820950353C316.23644492872137 399.3871528749794 319.6703708343629 373.542014914443 335.95914204934394 349.7205691728129C352.247913264325 325.8991234311828 375.0862733389801 313.3224659887224 403.92590930400803 312.29254253521066C432.76554526903595 311.26261908169886 463.1080270363351 312.43065724017765 474.3893946814777 344.7769365959565C485.67076232662043 377.12321595173535 477.41274742234305 439.27643076938176 458.07647400069266 467.55468344294945 "></path><path d="M449.5929247013888 363.18463456983034C457.11383646481727 384.7488208070163 451.60849319529905 426.18429735211384 438.71764424753206 445.036465801159C425.82679529976514 463.88863425020406 406.0969423255234 459.3582655346794 387.71684975210763 453.6750431252469C369.3367571786918 447.99182071581436 356.8287749240546 435.9225510492535 350.49319989513623 417.7569982358829C344.1576248662179 399.5914454225123 346.4469088033123 382.3613534488214 357.3060896132996 366.48038962106796C368.165270423287 350.59942579331454 383.39084380639036 342.214987498341 402.61726778307565 341.52837186266646C421.843691759761 340.84175622699195 442.0720129379604 341.62044833264446 449.5929247013888 363.18463456983034C457.11383646481727 384.7488208070163 451.60849319529905 426.18429735211384 438.71764424753206 445.036465801159 "></path><path d="M424.7964547212999 381.59231728491517C428.5569106030141 392.37441040350814 425.804238968255 413.0921486760569 419.3588144943715 422.5182329005795C412.913390020488 431.94431712510203 403.04846353336717 429.6791327673397 393.85841724665926 426.83752156262346C384.6683709599514 423.9959103579072 378.4143798326328 417.9612755246268 375.2465923181736 408.8784991179415C372.07880480371443 399.79572271125613 373.2234467722616 391.18067672441066 378.65303717725527 383.240194810534C384.08262758224896 375.2997128966573 391.6954142738007 371.1074937491705 401.3086262621433 370.76418593133326C410.92183825048596 370.420878113496 421.03599883958566 370.81022416632226 424.7964547212999 381.59231728491517C428.5569106030141 392.37441040350814 425.804238968255 413.0921486760569 419.3588144943715 422.5182329005795 "></path></g></svg>