<?xml version="1.0" encoding="UTF-8"?>
<svg xmlns="http://www.w3.org/2000/svg" viewBox="0 0 861.62 859.87">
  <defs>
    <style>.cls-1{fill:#fff;}</style>
  </defs>
  <g id="Calque_2" data-name="Calque 2">
    <g id="Calque_1-2" data-name="Calque 1">
      <path class="cls-1"
d="M861.32,136.47C861.14,60.54,798.14-.4,722.12,0S584,61.86,584,137.79q-.35,292.25,0,584.48c0,58.72,38.14,111,93.73,130,5.45,1.87,12.28,1.17,15.56,7.57H747.9c2.89-6.29,9.52-4.41,14.25-5.85,59.14-18,99.13-69.77,99.21-131.25Q861.8,429.63,861.32,136.47Z"
/>
      <path class="cls-1"
d="M553.55,635.69c-18.73,29.27-40,56.38-66.93,78.63C450.68,744,409.86,761.66,362.7,756.88c-81.29-8.22-140.29-49.9-175.47-123.83-29.18-61.33-36.9-127.36-41.45-194.18-3.94-58.07,1.12-116.51-6.73-174.31C126.28,170.48,80,96.84,1,43.93Q.83,274.45.63,505c0,7.85-.41,15.7-.63,23.55C7.78,637.39,50.69,729,135.16,799.37c34,28.34,74,45,117.41,53.8,7.23,1.46,15.74,0,21.47,6.7h76.55c1.74-3.26,4.93-2.8,7.87-3.15,49.94-5.85,92.85-26.11,128.22-62.13,40.4-41.14,61.74-92,75.35-146.83,2.08-8.37,6.46-16.81,2.4-26.43C558.27,624.69,556.65,630.83,553.55,635.69Z"
/>
      <path class="cls-1"
d="M83.58,15.32C177.1,98.64,217,204.37,215.94,328c-.54,61.82,1.15,123.7,10.91,185,6.81,42.8,18.1,84.06,44.79,119.55C303,674.1,377.15,707.76,434.25,662.93c41.75-32.77,66.26-77.16,89.32-127-12.69,5.16-21.83,9.38-31.3,12.62-48.4,16.58-88.78,3-116.93-39.78C352,473.41,341,434,340.4,392c-.74-52.77-.38-105.57-.12-158.35.24-47.61-14.8-89.69-47.19-124.38C235.28,47.29,159,23.47,79,6.49,78.53,11.8,81.4,13.37,83.58,15.32Z"
/>
    </g>
  </g>
</svg>