<svg xmlns="http://www.w3.org/2000/svg" viewBox="0 0 923.94 235">
  <defs>
    <style>.cls-1{fill:#fff;}</style>
  </defs>
  <g id="Calque_2" data-name="Calque 2">
    <g id="Calque_1-2" data-name="Calque 1">
      <path class="cls-1"
        d="M192,235c-1.51-1.54-3.67-1.29-5.51-1.87-15.46-4.92-26.41-19.34-26.43-35.51q-.1-80.13,0-160.27c0-20.6,17.5-37.46,38.23-37.35S236,16.75,236.05,37.22q.18,80.15,0,160.27c0,16.6-10.83,30.78-26.72,35.74-1.46.45-3.39,0-4.36,1.77Z" />
      <path class="cls-1"
        d="M.29,12C22,26.64,34.83,46.9,38.14,72.84c2.17,17,.54,34.1,2,51.12,1.78,20.76,4.71,41.18,16.92,58.94,13.72,19.94,40.4,29.21,61.37,21.21,13.61-5.2,23-15.34,31.06-27,1.65-2.41,3.22-4.87,5-7.64,1.3,3,.06,5.28-.51,7.55-4.68,18.56-12.43,35.33-28.61,46.9a56.6,56.6,0,0,1-27.19,10.21c-.81.08-1.69-.06-2.13.87h-21c-1.58-1.81-3.89-1.46-5.89-1.86-14.91-3-28-9.56-38.67-20.36C11.85,193.85,1.66,171,0,144.44c.06-2.15.17-4.3.17-6.44Q.25,75,.29,12Z" />
      <path class="cls-1"
        d="M21.9,1.87c18.66,3.84,36.59,9.45,51.74,21.69C86.54,34,93.29,47.42,93.24,64.13c0,14.42-.14,28.85,0,43.27a58.06,58.06,0,0,0,9.43,31.46c7.76,11.95,18.93,15.71,32.38,11,2.49-.86,4.89-2,8.11-3.33a99.76,99.76,0,0,1-15.69,26.55c-.31.38-.67.73-1,1.1-16.13,18-39.44,16.63-53.31-3.25-8.13-11.66-10.53-25.22-12.05-39-1.71-15.5-1.84-31.08-2-46.65C58.76,53.61,47.65,26.54,23.82,5a25.17,25.17,0,0,0-2.81-2Z" />
      <path class="cls-1"
        d="M705.5,67.23c0-27.21,18.81-46.16,45.77-46.15,26.66,0,45.94,19.47,45.91,46.32s-19,46.21-45.83,46.35C724.34,113.89,705.49,94.76,705.5,67.23Zm76,.09c0-17.84-12.48-30.49-30.14-30.54-17.81-.06-30.63,12.84-30.57,30.74S733.33,97.83,751.09,98,781.51,85.48,781.51,67.32Z" />
      <path class="cls-1"
        d="M578.28,111.33c-3.27,1.07-5.5.14-7.85-2.41-15.86-17.2-31.89-34.22-48.58-52.06v54.69H506.07v-88c3.32-1.16,5.71-.34,8.2,2.37C529.4,42.44,544.73,58.77,560,75.16c.65.7,1.25,1.46,2.79,3.26V23.48a91.75,91.75,0,0,1,15.51-.24Z" />
      <path class="cls-1"
        d="M908.39,76.92V23.32h15.55v88c-3.52,1.37-5.87-.15-8.22-2.68-15.77-17-31.65-34-48.24-51.76v54.67H851.73V23.58c3.75-1.53,6.17.14,8.61,2.79C875.17,42.49,890.12,58.49,905,74.56a22.29,22.29,0,0,1,2.09,3.2Z" />
      <path class="cls-1"
        d="M434.83,23.23h14.91c1.19.81.93,1.88.93,2.83,0,17.75.14,35.51,0,53.26-.15,16-9.62,29-24,33.57-15.58,4.94-32.1,0-41.09-12.2-3.6-4.9-6.35-10.43-6.46-16.4-.35-20.21-.13-40.43-.13-60.93h14.49c1.27,1.61.65,3.5.66,5.24.05,15.76-.05,31.52.05,47.28.08,13.07,6.14,20.42,18,22.25a19.49,19.49,0,0,0,22.67-19.25c.09-16.76,0-33.51,0-50.27Z" />
      <path class="cls-1" d="M286.27,23.3V97h41.52v14.38H270.9V23.3Z" />
      <path class="cls-1" d="M650.6,111.56H635.54V23.37H650.6Z" />
      <path class="cls-1"
        d="M419.92,138.91a94,94,0,0,1,34.5-1.32c9.77,1.49,18.76,4.6,22,15.07,3.11,10,.05,18.4-9.6,24.56,6.4,3.71,12.14,6.76,14.15,13.69,3.65,12.62-3.21,24.33-17,28.51-10.91,3.31-31.33,3.29-44.09-.15Zm12.18,73.83c10,.36,18.88,1,27.42-2,6.47-2.29,10.28-6.83,9.92-14-.35-6.74-4.23-10.71-10.57-12.51-8.95-2.53-17.92-1.17-26.77-1.35Zm0-38.91c8.42-.06,16.34,1.13,24.07-1.66,6-2.17,8.95-6.45,8.84-12.81-.12-6.09-3.41-9.84-9-11.8-7.68-2.72-15.55-2.26-23.95-1.6Z" />
      <path class="cls-1"
        d="M411,221c-10.13,3-14.9-.81-16.43-9.7-1.69-9.82-6.78-14.31-17.51-12.77-7.8,1.13-15.9.22-24.22.22l-8.33,22.45a28.45,28.45,0,0,1-12.86-.17c8.11-20.78,16.05-41.29,24.14-61.73,2.38-6,5.4-11.78,7.78-17.8,1.57-4,4.16-5,8.21-5,3.81,0,5.72,1.27,7.34,4.72C391.26,167.19,401.32,193.88,411,221Zm-24.2-31.37c-5-12.84-9-25.38-15.73-38.11-5.95,13.31-11.15,25.19-14.61,38.11Z" />
      <path class="cls-1"
        d="M271.85,221.41V137.83c3.89-1.86,7.35-1.06,11.71-.68v75.63h38.31a8.85,8.85,0,0,1,.52,8.63Z" />
    </g>
  </g>
</svg>